<svg width="26" height="25" viewBox="0 0 26 25" fill="none" xmlns="http://www.w3.org/2000/svg">
<path d="M20.5 17V10.75C20.5 6.9125 18.45 3.7 14.875 2.85V2C14.875 0.9625 14.025 0.125 12.9875 0.125C11.95 0.125 11.125 0.9625 11.125 2V2.85C7.53747 3.7 5.49997 6.9 5.49997 10.75V17L3.87497 18.6125C3.08747 19.4 3.63747 20.75 4.74997 20.75H21.2125C22.325 20.75 22.8875 19.4 22.1 18.6125L20.5 17ZM12.9875 24.5C14.3625 24.5 15.4875 23.375 15.4875 22H10.4875C10.4875 23.375 11.6 24.5 12.9875 24.5ZM6.46247 2.9125C6.98747 2.4375 6.99997 1.625 6.49997 1.125C6.02497 0.65 5.24997 0.6375 4.76247 1.1C2.62497 3.05 1.14997 5.7 0.674971 8.675C0.562471 9.4375 1.14997 10.125 1.92497 10.125C2.52497 10.125 3.04997 9.6875 3.14997 9.0875C3.52497 6.6625 4.72497 4.5 6.46247 2.9125ZM21.25 1.1C20.75 0.6375 19.975 0.65 19.5 1.125C19 1.625 19.025 2.425 19.5375 2.9C21.2625 4.4875 22.475 6.65 22.85 9.075C22.9375 9.675 23.4625 10.1125 24.075 10.1125C24.8375 10.1125 25.4375 9.425 25.3125 8.6625C24.8375 5.7 23.375 3.0625 21.25 1.1Z" fill="#4168F6"/>
</svg>
