<svg width="210" height="114" viewBox="0 0 210 114" fill="none" xmlns="http://www.w3.org/2000/svg">
<g clip-path="url(#clip0_3346_30640)">
<path d="M136.216 41.3088L145.436 35.5448L149.279 34.01L171.175 65.8879C166.442 68.9573 156.882 75.1783 156.577 75.4946C156.273 75.7992 142.882 52.8368 136.216 41.3088Z" fill="white"/>
<path d="M149.067 33.4711L145.225 35.0059L145.658 36.0954L149.501 34.5607L149.067 33.4711ZM171.666 65.5598L149.77 33.682L148.81 34.3498L170.706 66.2276L171.666 65.5598ZM156.999 75.9046C156.999 75.9046 156.987 75.9046 157.092 75.846C157.174 75.7874 157.292 75.7054 157.444 75.6C157.737 75.4008 158.159 75.1197 158.662 74.7799C159.67 74.1121 161.041 73.21 162.552 72.2142C165.574 70.2343 169.136 67.9146 171.514 66.3799L170.882 65.3958C168.515 66.9305 164.942 69.2619 161.919 71.2301C160.408 72.2142 159.037 73.128 158.018 73.7958C157.514 74.1356 157.092 74.4167 156.788 74.6276C156.636 74.733 156.507 74.815 156.413 74.8853C156.343 74.9322 156.237 75.0142 156.179 75.0728L157.01 75.9046H156.999ZM135.723 41.6017C139.051 47.3657 144.065 55.9883 148.282 63.1347C150.391 66.7079 152.301 69.918 153.707 72.2025C154.41 73.3506 154.984 74.2761 155.405 74.8971C155.616 75.2134 155.78 75.4594 155.909 75.6351C155.968 75.7171 156.038 75.7992 156.097 75.8577C156.12 75.8812 156.179 75.9397 156.261 75.9866C156.296 76.01 156.389 76.0569 156.507 76.0686C156.647 76.0803 156.846 76.0452 156.987 75.8929L156.155 75.0611C156.307 74.9088 156.483 74.8853 156.624 74.8971C156.741 74.9088 156.811 74.9556 156.846 74.9674C156.882 74.9908 156.905 75.0025 156.917 75.0142C156.917 75.0142 156.882 74.9556 156.858 74.9205C156.753 74.7799 156.6 74.5573 156.401 74.2527C156.003 73.6435 155.429 72.7297 154.726 71.5816C153.32 69.2971 151.422 66.0987 149.313 62.5255C145.096 55.3791 140.082 46.7682 136.754 41.0042L135.735 41.59L135.723 41.6017ZM145.143 35.0527L135.923 40.8167L136.543 41.8125L145.764 36.0485L145.143 35.0527ZM149.29 34.01L149.77 33.682C149.618 33.4594 149.325 33.3657 149.067 33.4711L149.29 34.01ZM171.186 65.8879L171.502 66.3799C171.631 66.2979 171.725 66.1573 171.76 66.005C171.795 65.8527 171.76 65.6887 171.666 65.5598L171.186 65.8879ZM156.589 75.4946L156.999 75.9046L156.589 75.4946ZM136.227 41.3088L135.911 40.8167C135.641 40.9808 135.559 41.3322 135.712 41.6017L136.215 41.3088H136.227ZM145.447 35.5448L145.225 35.0059C145.225 35.0059 145.166 35.0293 145.131 35.0527L145.447 35.5448Z" fill="#1A1E27"/>
<path d="M130.721 44.9054C131.225 44.6477 132.01 44.2728 132.701 43.9565C133.052 43.7925 133.369 43.6636 133.615 43.5582C133.744 43.5113 133.837 43.4761 133.908 43.4527C134.001 43.4176 133.99 43.441 133.919 43.441V42.2695C133.779 42.2695 133.627 42.3163 133.545 42.3397C133.439 42.3749 133.31 42.4218 133.17 42.4803C132.9 42.5858 132.56 42.7381 132.209 42.9021C131.506 43.2301 130.709 43.6167 130.194 43.8745L130.721 44.9172V44.9054ZM101.842 53.3289C102.92 47.5883 113.253 37.0092 130.206 44.9172L130.698 43.851C113.089 35.6385 101.913 46.569 100.683 53.1063L101.831 53.3171L101.842 53.3289ZM93.1964 63.5213C92.0132 62.5255 91.2751 61.7406 90.865 61.1197C90.455 60.4987 90.4316 60.1238 90.4901 59.9012C90.5487 59.6669 90.7596 59.4209 91.2516 59.1515C91.732 58.882 92.388 58.6594 93.173 58.4368C94.696 58.0033 96.6993 57.5816 98.3395 56.8904C99.9797 56.1992 101.503 55.1565 101.842 53.3171L100.694 53.1063C100.46 54.3364 99.4408 55.1682 97.8826 55.8125C96.3245 56.4569 94.4968 56.8318 92.845 57.3121C92.0483 57.5464 91.2868 57.8042 90.6776 58.1322C90.0801 58.4602 89.5412 58.9171 89.3537 59.5966C89.1663 60.2879 89.3772 61.0142 89.8809 61.764C90.3847 62.5255 91.2165 63.3925 92.4349 64.4117L93.1847 63.5096L93.1964 63.5213ZM112.714 57.4761C110.957 59.7958 107.852 62.877 104.291 64.564C100.753 66.251 96.8165 66.5556 93.2081 63.5213L92.4583 64.4234C96.5236 67.8443 100.987 67.446 104.806 65.6301C108.602 63.8259 111.836 60.6042 113.663 58.1908L112.726 57.4879L112.714 57.4761ZM133.919 43.441C134.247 43.441 134.505 43.1833 134.505 42.8552C134.505 42.5272 134.247 42.2695 133.919 42.2695V43.441ZM130.463 44.39L130.217 44.9172C130.381 44.9874 130.569 44.9874 130.733 44.9172L130.475 44.39H130.463ZM92.8215 63.9782L92.4466 64.4234L92.8215 63.9782ZM113.64 58.1908C113.839 57.933 113.781 57.5699 113.523 57.3707C113.265 57.1715 112.902 57.2301 112.703 57.4879L113.64 58.1908Z" fill="black"/>
<path d="M126.938 102.768C127.406 103.307 127.711 104.197 127.711 105.17C127.711 106.142 127.43 107.115 126.785 107.853C125.579 109.259 122.779 110.079 117.272 107.232L116.733 108.274C122.369 111.192 125.907 110.664 127.676 108.614C128.531 107.618 128.882 106.353 128.882 105.158C128.882 103.975 128.508 102.792 127.828 101.995L126.938 102.756V102.768ZM134.143 94.5674C134.869 96.1255 135.103 98.328 134.26 99.8979C133.85 100.671 133.17 101.315 132.104 101.69C131.026 102.065 129.527 102.182 127.488 101.808L127.277 102.956C129.456 103.354 131.167 103.26 132.503 102.792C133.838 102.323 134.752 101.479 135.291 100.449C136.369 98.4452 136.029 95.8326 135.209 94.0636L134.143 94.5556V94.5674ZM138.923 84.7966C139.708 85.4059 140.446 86.3431 140.949 87.3858C141.453 88.4402 141.711 89.5649 141.582 90.549C141.465 91.5096 140.985 92.3648 139.965 92.9506C138.923 93.5598 137.247 93.923 134.717 93.7356L134.635 94.9071C137.294 95.1063 139.227 94.7431 140.551 93.9699C141.91 93.1849 142.578 92.0017 142.742 90.7013C142.906 89.4243 142.578 88.077 142.004 86.882C141.43 85.687 140.586 84.6092 139.637 83.8711L138.923 84.7966ZM145.308 77.3339C146.432 79.2084 146.807 80.6025 146.76 81.6218C146.713 82.5941 146.268 83.2619 145.589 83.6954C144.886 84.1523 143.89 84.3866 142.777 84.3866C141.676 84.3866 140.504 84.1757 139.485 83.7774L139.063 84.8669C140.223 85.3121 141.535 85.5582 142.777 85.5464C144.019 85.5464 145.261 85.2887 146.21 84.6678C147.194 84.0351 147.85 83.0393 147.92 81.6686C147.979 80.3331 147.487 78.6929 146.303 76.7247L145.296 77.3222L145.308 77.3339ZM111.907 60.323C116.405 61.0845 123.341 62.9473 129.878 65.8293C136.439 68.723 142.472 72.6008 145.308 77.3339L146.315 76.7364C143.281 71.687 136.966 67.6803 130.359 64.7632C123.728 61.8343 116.698 59.9481 112.106 59.1749L111.907 60.3347V60.323ZM117.272 107.232C116.98 107.079 116.628 107.197 116.487 107.478C116.335 107.771 116.452 108.122 116.733 108.263L117.272 107.22V107.232ZM127.371 102.37L127.477 101.796C127.231 101.749 126.985 101.866 126.867 102.077C126.739 102.288 126.774 102.557 126.926 102.745L127.371 102.358V102.37ZM134.67 94.3096L134.717 93.7238C134.506 93.7121 134.307 93.8059 134.19 93.9699C134.072 94.1339 134.049 94.3565 134.143 94.5439L134.67 94.2979V94.3096ZM139.274 84.328L139.485 83.7774C139.215 83.672 138.911 83.7774 138.77 84.0351C138.63 84.2929 138.688 84.6092 138.923 84.7849L139.286 84.328H139.274ZM145.8 77.0293L146.303 76.7247L145.8 77.0293ZM112.094 59.1632C111.778 59.1046 111.473 59.3272 111.415 59.6435C111.356 59.9598 111.579 60.2644 111.895 60.323L112.094 59.1632Z" fill="black"/>
<path d="M107.982 95.2586C109.388 94.79 111.719 94.79 113.476 95.7038C114.343 96.149 115.058 96.805 115.468 97.7188C115.878 98.6326 116.03 99.851 115.667 101.491L116.815 101.749C117.225 99.9213 117.085 98.4335 116.534 97.2385C115.995 96.0435 115.07 95.2117 114.015 94.6728C111.942 93.595 109.282 93.6067 107.607 94.1573L107.982 95.2703V95.2586ZM98.785 89.8695C100.05 89.3891 101.983 89.0728 103.659 89.6469C104.49 89.928 105.264 90.4201 105.873 91.2167C106.494 92.0251 106.986 93.1615 107.208 94.7782L108.368 94.6142C108.122 92.8452 107.572 91.4979 106.798 90.5021C106.025 89.5063 105.053 88.8854 104.022 88.5339C101.995 87.8427 99.7809 88.2293 98.3516 88.7682L98.7733 89.8577L98.785 89.8695ZM87.8193 85.9213C89.0378 84.8787 91.4277 84.0469 93.5834 84.3515C94.6495 84.5038 95.6336 84.9255 96.4068 85.6988C97.18 86.472 97.7775 87.6552 97.9884 89.3891L99.1482 89.2485C98.9022 87.3038 98.2227 85.8745 97.2269 84.8787C96.2428 83.8828 95.0009 83.3791 93.7357 83.1916C91.2286 82.8402 88.5106 83.7774 87.0461 85.031L87.8076 85.9213H87.8193ZM84.8436 78.3063C86.3783 79.1615 87.1633 80.6494 87.4327 82.0787C87.5616 82.7933 87.5616 83.4728 87.4679 84.0117C87.3742 84.5741 87.1867 84.9138 87.0461 85.0427L87.8193 85.9213C88.2528 85.5347 88.4988 84.8904 88.616 84.2226C88.7332 83.5314 88.7332 82.7113 88.5809 81.8678C88.2645 80.1925 87.3273 78.3531 85.406 77.287L84.8319 78.3063H84.8436ZM73.3859 89.518C74.3348 86.9875 76.0687 83.4494 78.2009 80.9188C79.267 79.6536 80.3917 78.6812 81.5164 78.1774C82.6177 77.6971 83.7189 77.6736 84.8436 78.2946L85.4177 77.2753C83.9298 76.4552 82.4419 76.5021 81.0478 77.1113C79.6888 77.7088 78.4235 78.8335 77.2988 80.169C75.0612 82.8402 73.2687 86.5071 72.2846 89.108L73.3859 89.518ZM115.667 101.48C115.597 101.796 115.796 102.112 116.112 102.182C116.429 102.253 116.745 102.054 116.815 101.737L115.667 101.48ZM107.794 94.6962L107.208 94.7782C107.232 94.954 107.326 95.1063 107.478 95.2C107.63 95.2937 107.806 95.3172 107.97 95.2586L107.783 94.7079L107.794 94.6962ZM98.5742 89.3188L97.9884 89.3891C98.0118 89.5649 98.1173 89.7289 98.2696 89.8226C98.4219 89.9163 98.6093 89.928 98.785 89.8695L98.5742 89.3188ZM87.4327 85.4762L87.0461 85.0427C86.8001 85.2536 86.7884 85.6285 86.9993 85.8628C87.2101 86.1088 87.5733 86.1322 87.8193 85.9213L87.4327 85.4762ZM85.1248 77.7908L84.8436 78.3063L85.1248 77.7908ZM72.2846 89.108C72.1675 89.4126 72.3198 89.7523 72.6244 89.8577C72.929 89.9749 73.2687 89.8226 73.3742 89.518L72.2729 89.108H72.2846Z" fill="black"/>
<path d="M111.765 111.496L115.608 104.584L114.589 104.01L110.746 110.922L111.765 111.496ZM100.706 106.06C100.366 107.302 100.659 108.614 101.292 109.762C101.924 110.91 102.92 111.941 104.08 112.668C105.24 113.394 106.599 113.828 107.958 113.71C109.34 113.605 110.664 112.937 111.718 111.567L110.793 110.852C109.926 111.977 108.907 112.469 107.864 112.551C106.81 112.633 105.697 112.305 104.701 111.672C103.705 111.051 102.85 110.161 102.323 109.2C101.795 108.239 101.608 107.244 101.842 106.377L100.718 106.072L100.706 106.06ZM91.0874 100.905C91.2866 102.639 92.0247 105.064 93.6883 106.587C94.5318 107.361 95.6096 107.9 96.9452 107.982C98.269 108.064 99.8037 107.689 101.561 106.728L100.999 105.697C99.3703 106.587 98.0581 106.869 97.0154 106.81C95.9728 106.751 95.1527 106.341 94.4849 105.721C93.1259 104.467 92.4464 102.358 92.259 100.765L91.0991 100.894L91.0874 100.905ZM81.1293 96.0318C81.6096 97.4611 82.6991 99.4293 84.4799 100.741C86.2958 102.077 88.7912 102.686 91.8958 101.374L91.4389 100.296C88.7209 101.444 86.659 100.894 85.1711 99.7925C83.6364 98.6678 82.664 96.9222 82.2422 95.6569L81.1293 96.0318ZM71.8857 91.2402C71.8857 92.6343 72.3778 94.5908 73.9477 95.8795C75.541 97.1916 78.0832 97.672 81.879 96.4067L81.5042 95.2937C77.9309 96.4887 75.8573 95.9381 74.6857 94.9774C73.479 93.9816 73.0573 92.4117 73.0573 91.2402H71.8857ZM115.62 104.584C115.772 104.303 115.678 103.94 115.397 103.787C115.116 103.635 114.753 103.729 114.6 104.01L115.62 104.584ZM111.261 111.215L111.73 111.567C111.73 111.567 111.765 111.52 111.777 111.496L111.261 111.215ZM101.28 106.224L101.842 106.377C101.901 106.154 101.819 105.908 101.643 105.767C101.456 105.627 101.21 105.603 100.999 105.709L101.28 106.224ZM91.6732 100.847L92.259 100.777C92.2355 100.589 92.1301 100.425 91.9778 100.343C91.8138 100.249 91.6263 100.238 91.4506 100.308L91.6732 100.847ZM81.6916 95.8561L82.2422 95.6686C82.1954 95.5163 82.0899 95.3992 81.9493 95.3289C81.8087 95.2586 81.6447 95.2469 81.5042 95.2937L81.6916 95.8444V95.8561ZM73.0573 91.2519C73.0573 90.9239 72.7995 90.6661 72.4715 90.6661C72.1435 90.6661 71.8857 90.9239 71.8857 91.2519H73.0573Z" fill="black"/>
<path d="M77.7443 45.4092L65.0682 38.1105L64.4824 39.1297L77.1586 46.4285L77.7443 45.4092ZM84.7502 45.3272H77.4515V46.4987H84.7502V45.3272ZM112.106 41.8711C109.376 41.4845 104.28 41.1916 98.9845 41.5782C93.7008 41.9649 88.1008 43.031 84.4339 45.4209L85.0782 46.405C88.4757 44.1908 93.8297 43.1364 99.0665 42.7498C104.292 42.3632 109.294 42.6561 111.942 43.031L112.106 41.8711ZM77.4515 45.913L77.1586 46.4167C77.2523 46.4636 77.346 46.4987 77.4515 46.4987V45.913ZM84.7502 45.913V46.4987C84.8674 46.4987 84.9728 46.4636 85.0665 46.405L84.7502 45.913Z" fill="black"/>
<path d="M50.623 64.8452C56.2582 68.6879 69.2038 77.5916 75.9636 82.5004L76.6548 81.5515C69.8833 76.631 56.926 67.7155 51.2908 63.8728L50.6348 64.8452H50.623Z" fill="black"/>
<path d="M139.989 84.2109L123.083 73.8427L122.474 74.8385L139.379 85.2067L139.989 84.2109ZM123.083 73.8427C122.802 73.6787 122.45 73.7607 122.275 74.0301C122.111 74.3113 122.193 74.6628 122.462 74.8385L123.071 73.8427H123.083ZM139.368 85.2067C139.649 85.3707 140 85.2887 140.176 85.0192C140.34 84.7381 140.258 84.3866 139.989 84.2109L139.379 85.2067H139.368Z" fill="black"/>
<path d="M134.962 93.8059L120.751 86.1205L120.189 87.1515L134.4 94.8368L134.962 93.8059ZM120.751 86.1205C120.47 85.9682 120.107 86.0736 119.955 86.3548C119.802 86.636 119.908 86.9992 120.189 87.1515L120.751 86.1205ZM134.4 94.8368C134.681 94.9891 135.044 94.8837 135.196 94.6025C135.349 94.3213 135.243 93.9582 134.962 93.8059L134.4 94.8368Z" fill="black"/>
<path d="M125.051 100.378L117.366 94.6142L116.663 95.5515L124.348 101.315L125.051 100.378ZM117.366 94.6142C117.108 94.4151 116.745 94.4736 116.546 94.7314C116.347 94.9891 116.405 95.3523 116.663 95.5515L117.366 94.6142ZM124.348 101.315C124.606 101.515 124.969 101.456 125.168 101.198C125.368 100.941 125.309 100.577 125.051 100.378L124.348 101.315Z" fill="black"/>
<path d="M82.2195 96.0904L85.289 89.1783L84.2229 88.6979L81.1534 95.61L82.2195 96.0904ZM85.289 89.1783C85.4179 88.8854 85.289 88.5339 84.9961 88.405C84.7032 88.2762 84.3517 88.405 84.2229 88.6979L85.289 89.1783ZM81.1417 95.6218C81.0128 95.9146 81.1417 96.2661 81.4346 96.395C81.7275 96.5238 82.0789 96.395 82.2078 96.1021L81.1417 95.6218Z" fill="black"/>
<path d="M94.2159 94.4385L91.1465 100.589L92.1892 101.116L95.2586 94.9657L94.2159 94.4385ZM91.1465 100.589C91.0059 100.882 91.123 101.233 91.4042 101.374C91.6971 101.515 92.0486 101.397 92.1892 101.116L91.1465 100.589ZM95.2703 94.9657C95.4109 94.6728 95.2938 94.3213 95.0126 94.1808C94.7314 94.0402 94.3682 94.1573 94.2277 94.4385L95.2703 94.9657Z" fill="black"/>
<path d="M107.267 94.4502L104.198 100.976L105.252 101.48L108.322 94.954L107.267 94.4502ZM104.198 100.976C104.057 101.269 104.186 101.62 104.479 101.761C104.772 101.901 105.123 101.772 105.264 101.48L104.209 100.976H104.198ZM108.333 94.9423C108.474 94.6494 108.345 94.2979 108.052 94.1573C107.759 94.0167 107.408 94.1456 107.267 94.4385L108.322 94.9423H108.333Z" fill="black"/>
<path d="M169.722 70.9372L144.288 33.6351L187.155 0L210 42.1757L169.722 70.9372Z" fill="#1A1E27"/>
<path d="M171.561 58.0033C173.897 58.0033 175.791 56.1098 175.791 53.7741C175.791 51.4383 173.897 49.5448 171.561 49.5448C169.226 49.5448 167.332 51.4383 167.332 53.7741C167.332 56.1098 169.226 58.0033 171.561 58.0033Z" fill="#4168F6"/>
<path d="M18.077 2.14393C26.395 10.087 53.7975 28.4803 54.4067 29.4059L37.1264 60.5222L0 47.1431L18.077 2.14393Z" fill="#4168F6"/>
<path d="M57.1013 68.5824C60.4285 59.2335 67.0828 40.4653 67.0828 40.1607L52.4854 65.1264L57.0895 68.5824H57.1013Z" fill="black"/>
<path d="M52.1105 25.5632L69.3909 36.318L50.5758 68.5824L31.749 59.749L52.1105 25.5632Z" fill="#4168F6"/>
<path d="M136.603 42.4686C136.661 42.5038 136.802 42.7264 137.001 43.1247L153.883 71.2653L149.654 73.9481C145.963 64.5992 138.817 46.7682 136.989 43.113L136.591 42.4569L136.603 42.4686Z" fill="black"/>
<path d="M39.6097 47.8577L51.3838 27.672L50.3762 27.0862L38.6022 47.272L39.6097 47.8577ZM51.3838 27.672C51.5478 27.3908 51.4541 27.0393 51.1729 26.8753C50.8917 26.7113 50.5403 26.805 50.3762 27.0862L51.3838 27.672ZM38.6022 47.2603C38.4382 47.5414 38.5319 47.8929 38.8131 48.0569C39.0942 48.2209 39.4457 48.1272 39.6097 47.846L38.6022 47.2603Z" fill="black"/>
</g>
<defs>
<clipPath id="clip0_3346_30640">
<rect width="210" height="113.734" fill="white"/>
</clipPath>
</defs>
</svg>
