<svg width="33" height="32" viewBox="0 0 33 32" fill="none" xmlns="http://www.w3.org/2000/svg">
<path d="M30.627 8.43587C30.6125 7.41737 29.838 6.55137 28.825 6.42037C23.0715 5.67687 19.0705 2.43987 17.6175 1.08287C16.9905 0.496867 16.009 0.497367 15.382 1.08287C13.929 2.43987 9.92855 5.67687 4.17505 6.42037C3.16255 6.55137 2.38755 7.41737 2.37305 8.43587C2.31055 12.9739 3.13205 28.0374 16.318 31.3334C16.378 31.3484 16.439 31.3559 16.5 31.3559C16.561 31.3559 16.622 31.3484 16.682 31.3334C29.869 28.0374 30.6895 12.9739 30.627 8.43587Z" fill="#353C49"/>
<path d="M16.4999 29.8321C4.55644 26.7076 3.81444 12.6946 3.87294 8.4566C3.87694 8.1796 4.08944 7.9441 4.36744 7.9081C10.5529 7.1086 14.8469 3.6351 16.4064 2.1786C16.4329 2.1541 16.4664 2.1416 16.5004 2.1416C16.5339 2.1416 16.5674 2.1536 16.5939 2.1786C18.1534 3.6351 22.4479 7.1086 28.6334 7.9081C28.9114 7.9441 29.1234 8.1796 29.1274 8.4561C29.1854 12.6946 28.4444 26.7076 16.4999 29.8321Z" fill="white"/>
<path d="M20.6049 13.3548V11.5748C20.6049 9.30984 18.7649 7.46484 16.4999 7.46484C14.2349 7.46484 12.3949 9.30984 12.3949 11.5748V13.3548C11.2849 13.4698 10.4199 14.4148 10.4199 15.5498V18.4548C10.4199 21.8048 13.1499 24.5348 16.4999 24.5348C19.8499 24.5348 22.5799 21.8048 22.5799 18.4548V15.5498C22.5799 14.4148 21.7149 13.4698 20.6049 13.3548Z" fill="#353C49"/>
<path d="M13.895 11.5748C13.895 10.1348 15.06 8.96484 16.5 8.96484C17.94 8.96484 19.105 10.1348 19.105 11.5748V13.3448H13.895V11.5748Z" fill="white"/>
<path d="M21.0799 18.4547C21.0799 20.9797 19.0249 23.0347 16.4999 23.0347C13.9749 23.0347 11.9199 20.9797 11.9199 18.4547V15.5497C11.9199 15.2397 12.1199 14.9797 12.3949 14.8847L13.8949 14.8447H19.1049H20.3749C20.4549 14.8447 20.5349 14.8597 20.6049 14.8847C20.8799 14.9797 21.0799 15.2397 21.0799 15.5497V18.4547Z" fill="#4168F6"/>
<path d="M16.5012 17.1094C15.8752 17.1094 15.3657 17.6189 15.3657 18.2444C15.3657 18.5819 15.5162 18.8819 15.7502 19.0904V20.0209C15.7502 20.4349 16.0857 20.7709 16.5002 20.7709C16.9147 20.7709 17.2502 20.4349 17.2502 20.0209V19.0909C17.4842 18.8824 17.6347 18.5824 17.6347 18.2449C17.6347 17.6184 17.1262 17.1094 16.5012 17.1094Z" fill="white"/>
</svg>
