<svg width="33" height="32" viewBox="0 0 33 32" fill="none" xmlns="http://www.w3.org/2000/svg">
<g clip-path="url(#clip0_4594_32907)">
<path d="M27.8004 11.3796H20.9344V4.21108C20.9344 3.17608 20.5299 2.20158 19.7964 1.46808C19.0624 0.734578 18.0884 0.330078 17.0534 0.330078H4.52895C2.38895 0.330078 0.647949 2.07108 0.647949 4.21108V12.5606C0.647949 14.7006 2.38895 16.4416 4.52895 16.4416H4.82245V18.8226C4.82245 19.5596 5.26095 20.2131 5.93995 20.4881C6.15845 20.5766 6.38595 20.6191 6.61145 20.6191C7.08095 20.6191 7.53895 20.4326 7.87545 20.0856L11.3954 16.5846V23.6096C11.3954 25.7491 13.1384 27.4901 15.2804 27.4901H20.7909L24.4469 31.1266C24.7909 31.4806 25.2509 31.6691 25.7229 31.6691C25.9484 31.6691 26.1759 31.6261 26.3949 31.5371C27.0729 31.2626 27.5109 30.6101 27.5109 29.8746V27.4896H27.8004C29.9429 27.4896 31.6859 25.7491 31.6859 23.6091V15.2591C31.6859 13.1206 29.9429 11.3796 27.8004 11.3796Z" fill="#353C49"/>
<path d="M10.7009 15.1596L6.80845 19.0311C6.69395 19.1491 6.56895 19.1236 6.50345 19.0971C6.43595 19.0696 6.32295 18.9981 6.32295 18.8221V15.6911C6.32295 15.2766 5.98745 14.9411 5.57295 14.9411H4.52895C3.21595 14.9411 2.14795 13.8731 2.14795 12.5601V4.21108C2.14795 2.89808 3.21595 1.83008 4.52895 1.83008H17.0529C17.6879 1.83008 18.285 2.07808 18.7355 2.52858C19.186 2.97858 19.4339 3.57608 19.4339 4.21058V12.5601C19.4339 13.8731 18.3654 14.9411 17.0524 14.9411H11.2294C11.0314 14.9416 10.8409 15.0196 10.7009 15.1596Z" fill="#4168F6"/>
<path d="M30.186 23.6094C30.186 24.9219 29.116 25.9899 27.8005 25.9899H26.761C26.347 25.9899 26.011 26.3259 26.011 26.7399V29.8749C26.011 30.0489 25.898 30.1204 25.8315 30.1474C25.765 30.1739 25.639 30.2009 25.5145 30.0734L21.6295 26.2089C21.489 26.0694 21.299 25.9904 21.1005 25.9904H15.2805C13.9655 25.9904 12.8955 24.9224 12.8955 23.6099V16.4414H17.0525C19.085 16.4414 20.754 14.8709 20.9175 12.8799H27.8C29.1155 12.8799 30.1855 13.9474 30.1855 15.2599V23.6094H30.186Z" fill="white"/>
<path d="M23.9741 16.9513L20.5031 20.4223L19.0866 19.0063C18.9386 18.8583 18.7416 18.7763 18.5321 18.7763C18.3226 18.7763 18.1256 18.8583 17.9771 19.0063C17.8291 19.1543 17.7476 19.3518 17.7476 19.5613C17.7476 19.7708 17.8291 19.9678 17.9771 20.1158L19.9561 22.0953C20.1046 22.2433 20.3016 22.3248 20.5111 22.3248C20.7386 22.3248 20.9386 22.2418 21.0891 22.0913L25.1011 18.0788C25.2521 17.9283 25.3351 17.7278 25.3351 17.5148C25.3351 17.3018 25.2521 17.1018 25.1011 16.9513C24.8001 16.6503 24.2756 16.6503 23.9741 16.9513Z" fill="#353C49"/>
<path d="M10.5745 3.9502C10.38 3.9722 10.153 3.9837 9.93195 4.0262C9.41395 4.1247 8.95145 4.3447 8.57045 4.7147C8.20545 5.0692 8.18795 5.6387 8.51995 6.0162C8.78995 6.3227 9.19045 6.3217 9.61745 6.0132C9.64695 5.9922 9.67645 5.9712 9.70545 5.9497C10.024 5.7082 10.389 5.6137 10.779 5.6522C11.101 5.6842 11.3765 5.8227 11.4915 6.1547C11.6025 6.4757 11.4475 6.7177 11.2215 6.9227C11.108 7.0257 10.9775 7.1097 10.854 7.2017C10.1125 7.7522 9.78995 8.6187 10.0184 9.4497C10.1269 9.8452 10.3115 10.0527 10.554 10.0522C10.791 10.0517 10.9715 9.86619 11.0775 9.47269C11.187 9.06469 11.397 8.7227 11.7195 8.4567C11.9775 8.2442 12.2599 8.0612 12.5199 7.8507C13.3329 7.1932 13.5305 6.1757 13.0145 5.2702C12.4845 4.3407 11.622 4.0077 10.5745 3.9502Z" fill="white"/>
<path d="M10.7109 10.709C10.1119 10.71 9.73141 11.078 9.73291 11.6555C9.73441 12.2265 10.1414 12.6445 10.6944 12.6425C11.2749 12.6405 11.6919 12.2275 11.6894 11.658C11.6864 11.078 11.3049 10.708 10.7109 10.709Z" fill="white"/>
</g>
<defs>
<clipPath id="clip0_4594_32907">
<rect width="32" height="32" fill="white" transform="translate(0.166992)"/>
</clipPath>
</defs>
</svg>
