<svg width="47" height="42" viewBox="0 0 47 42" fill="none" xmlns="http://www.w3.org/2000/svg">
<path d="M36.8297 28.2933V29.9457H36.8471C37.3882 29.9457 37.906 29.8467 38.3889 29.6722C37.778 29.3231 37.2428 28.8518 36.8297 28.2933ZM38.6973 26.9958C38.6566 24.9246 37.6384 23.0453 36.0326 21.6838C35.0202 20.8227 33.7693 20.1595 32.3729 19.7871V21.7769C33.8449 22.2889 35.0726 23.214 35.8639 24.3777C36.4806 25.2795 36.8297 26.3267 36.8297 27.438V32.3078C36.8297 32.5173 36.818 32.7209 36.7948 32.9246C36.4282 35.9675 33.4493 38.3587 29.8304 38.4169H29.7024C28.3351 38.4169 27.0551 38.0853 25.9671 37.5093H22.7729C24.4311 39.214 26.9213 40.3078 29.7024 40.3078C29.7431 40.3078 29.7897 40.3078 29.8304 40.302C34.7177 40.2497 38.7031 36.8053 38.7031 32.5987V27.1471C38.7031 27.0947 38.7031 27.0482 38.6973 26.9958Z" fill="white" stroke="black" stroke-linecap="round" stroke-linejoin="round"/>
<path d="M23.209 1C15.2148 1 8.7334 7.34764 8.7334 15.1847C8.7334 15.2836 8.7334 15.3884 8.73921 15.4873C8.76249 16.744 8.95449 17.96 9.30358 19.1178C9.70503 20.5084 10.3218 21.8 11.1188 22.9753C11.1188 22.9869 11.1247 22.9985 11.1363 23.0044C12.0439 24.3542 13.1901 25.5411 14.505 26.5127L14.6272 26.6V24.0516C12.2592 21.8465 10.7698 18.7396 10.7465 15.2953C10.7407 15.2604 10.7407 15.2196 10.7407 15.1847C10.7407 8.43564 16.3203 2.96655 23.209 2.96655C30.0978 2.96655 35.6774 8.43564 35.6774 15.1847C35.6774 15.2604 35.6774 15.336 35.6716 15.4116C35.6192 18.5185 34.3741 21.3404 32.3727 23.4698V26.152C32.3727 26.152 32.4076 26.1345 32.4192 26.1171C33.8854 24.9418 35.1014 23.4815 35.9974 21.8291C36.3058 21.2705 36.5734 20.6771 36.7945 20.0778C36.7945 20.0778 36.7964 20.0739 36.8003 20.0662H36.8061C37.3588 18.5825 37.6672 16.9942 37.6788 15.336C37.6847 15.2836 37.6847 15.2371 37.6847 15.1847C37.6847 7.34764 31.2032 1 23.209 1Z" fill="white" stroke="black" stroke-linecap="round" stroke-linejoin="round"/>
<path d="M11.1365 22.964C11.1365 20.2327 8.92236 18.0186 6.19106 18.0186C3.45976 18.0186 1.24561 20.2327 1.24561 22.964V25.3611C1.24561 28.0924 3.45976 30.3066 6.19106 30.3066C8.92236 30.3066 11.1365 28.0924 11.1365 25.3611V22.964Z" fill="white" stroke="black" stroke-linecap="round" stroke-linejoin="round"/>
<path d="M11.1365 22.9645V25.3675C11.1365 28.0845 8.91397 30.3071 6.19106 30.3071C3.46815 30.3071 1.24561 28.0845 1.24561 25.3675V22.9645C1.24561 22.9064 1.2456 22.8424 1.25142 22.7842C1.38524 25.3907 3.55542 27.4736 6.19106 27.4736C8.8267 27.4736 10.9969 25.3907 11.1307 22.7842C11.1365 22.8424 11.1365 22.9064 11.1365 22.9645Z" fill="#CCCCCC"/>
<path d="M11.1365 22.964C11.1365 20.2327 8.92236 18.0186 6.19106 18.0186C3.45976 18.0186 1.24561 20.2327 1.24561 22.964V25.3611C1.24561 28.0924 3.45976 30.3066 6.19106 30.3066C8.92236 30.3066 11.1365 28.0924 11.1365 25.3611V22.964Z" stroke="black" stroke-linecap="round" stroke-linejoin="round"/>
<path d="M14.6271 19.7291V28.4563C14.6271 30.9174 12.614 32.9305 10.1529 32.9305C8.3493 32.9305 6.79003 31.8483 6.08603 30.3065C5.83003 29.7422 5.68457 29.1138 5.68457 28.4563V19.7291C5.68457 19.1298 5.80675 18.5538 6.02203 18.0243C6.51657 16.8316 7.51148 15.9007 8.73912 15.4876C9.1813 15.3363 9.65839 15.2549 10.1529 15.2549C10.3566 15.2549 10.5544 15.2665 10.7464 15.2956C11.7413 15.4294 12.6373 15.8891 13.3122 16.5698C14.1209 17.3785 14.6271 18.5014 14.6271 19.7291Z" fill="white" stroke="black" stroke-linecap="round" stroke-linejoin="round"/>
<path d="M14.6271 25.4707V28.4554C14.6271 30.9165 12.614 32.9296 10.1529 32.9296C8.3493 32.9296 6.79003 31.8474 6.08603 30.3056C5.83003 29.7412 5.68457 29.1129 5.68457 28.4554V25.4707C5.68457 26.1922 5.8533 26.8729 6.16167 27.4722C6.66785 28.4787 7.54639 29.2758 8.61112 29.6714C9.09402 29.846 9.61185 29.9449 10.1529 29.9449C12.2591 29.9449 14.0337 28.4729 14.5049 26.5122C14.5864 26.1805 14.6271 25.8314 14.6271 25.4707Z" fill="#CCCCCC"/>
<path d="M14.6271 19.7291V28.4563C14.6271 30.9174 12.614 32.9305 10.1529 32.9305C8.3493 32.9305 6.79003 31.8483 6.08603 30.3065C5.83003 29.7422 5.68457 29.1138 5.68457 28.4563V19.7291C5.68457 19.1298 5.80675 18.5538 6.02203 18.0243C6.51657 16.8316 7.51148 15.9007 8.73912 15.4876C9.1813 15.3363 9.65839 15.2549 10.1529 15.2549C10.3566 15.2549 10.5544 15.2665 10.7464 15.2956C11.7413 15.4294 12.6373 15.8891 13.3122 16.5698C14.1209 17.3785 14.6271 18.5014 14.6271 19.7291Z" stroke="black" stroke-linecap="round" stroke-linejoin="round"/>
<path d="M35.8635 25.3612C35.8635 28.0925 38.0776 30.3066 40.8089 30.3066C43.5402 30.3066 45.7544 28.0925 45.7544 25.3612V22.9641C45.7544 20.2328 43.5402 18.0186 40.8089 18.0186C38.0776 18.0186 35.8635 20.2328 35.8635 22.9641V25.3612Z" fill="white" stroke="black" stroke-linecap="round" stroke-linejoin="round"/>
<path d="M35.8638 22.9645V25.3675C35.8638 28.0845 38.0863 30.3071 40.8092 30.3071C43.5321 30.3071 45.7547 28.0845 45.7547 25.3675V22.9645C45.7547 22.9064 45.7547 22.8424 45.7489 22.7842C45.6151 25.3907 43.4449 27.4736 40.8092 27.4736C38.1736 27.4736 36.0034 25.3907 35.8696 22.7842C35.8638 22.8424 35.8638 22.9064 35.8638 22.9645Z" fill="#CCCCCC"/>
<path d="M35.8635 25.3612C35.8635 28.0925 38.0776 30.3066 40.8089 30.3066C43.5402 30.3066 45.7544 28.0925 45.7544 25.3612V22.9641C45.7544 20.2328 43.5402 18.0186 40.8089 18.0186C38.0776 18.0186 35.8635 20.2328 35.8635 22.9641V25.3612Z" stroke="black" stroke-linecap="round" stroke-linejoin="round"/>
<path d="M41.3209 19.7291V28.4563C41.3151 29.1138 41.1697 29.7422 40.9137 30.3065C40.7973 30.5625 40.6576 30.8011 40.5006 31.0222C40.4366 31.1152 40.3667 31.2083 40.2969 31.2956C40.2271 31.3771 40.1573 31.4585 40.0816 31.54C39.7093 31.924 39.2729 32.2498 38.7842 32.4883C38.7551 32.5 38.7318 32.5116 38.7027 32.5232C38.6038 32.5698 38.4933 32.6163 38.3886 32.6512C38.3886 32.6512 38.3828 32.6512 38.3828 32.6571C38.2664 32.6978 38.1442 32.7385 38.0162 32.7734C37.6438 32.8723 37.254 32.9247 36.8467 32.9247H36.7944C36.6024 32.9247 36.4104 32.9072 36.2242 32.884C35.8111 32.8258 35.4213 32.7094 35.0606 32.5523C34.8744 32.4709 34.6998 32.3836 34.5311 32.2789C34.4671 32.2382 34.4089 32.2032 34.3507 32.1625C34.2286 32.0811 34.118 31.9938 34.0075 31.9065C33.8969 31.8134 33.7864 31.7145 33.6875 31.6156C32.8787 30.8011 32.3726 29.684 32.3726 28.4563V19.7291C32.3726 18.5014 32.8787 17.3785 33.6875 16.5698C34.2286 16.0229 34.9093 15.6214 35.6715 15.412C36.0438 15.3072 36.4395 15.2549 36.8467 15.2549C37.1318 15.2549 37.4111 15.284 37.6787 15.3363C39.174 15.6156 40.4133 16.6512 40.9777 18.0243C41.1987 18.5538 41.3209 19.1298 41.3209 19.7291Z" fill="white" stroke="black" stroke-linecap="round" stroke-linejoin="round"/>
<path d="M41.3151 25.4717V28.4564C41.3151 29.1139 41.1697 29.7422 40.9137 30.3066C40.7973 30.5626 40.6577 30.8011 40.5006 31.0222C40.4366 31.1211 40.3667 31.2084 40.2969 31.2957C40.2271 31.383 40.1515 31.4644 40.0817 31.54C39.7093 31.924 39.2729 32.2499 38.7842 32.4884C38.6562 32.5466 38.5224 32.6048 38.3886 32.6513C38.3886 32.6513 38.3828 32.6513 38.3828 32.6571C37.9057 32.8375 37.3878 32.9306 36.8467 32.9306C35.9973 32.9306 35.206 32.692 34.5311 32.279C34.4671 32.2382 34.4089 32.2033 34.3507 32.1626C34.2286 32.0811 34.118 31.9939 34.0075 31.9066C33.8969 31.8135 33.7864 31.7146 33.6875 31.6157C32.8787 30.8011 32.3726 29.684 32.3726 28.4564V25.4717C32.3726 25.6928 32.39 25.908 32.4191 26.1175C32.7333 28.276 34.6067 29.9459 36.8467 29.9459C37.3878 29.9459 37.9056 29.847 38.3886 29.6724C39.4533 29.2768 40.3318 28.4797 40.838 27.4731C41.1464 26.8739 41.3151 26.1931 41.3151 25.4717Z" fill="#CCCCCC"/>
<path d="M41.3209 19.7291V28.4563C41.3151 29.1138 41.1697 29.7422 40.9137 30.3065C40.7973 30.5625 40.6576 30.8011 40.5006 31.0222C40.4366 31.1152 40.3667 31.2083 40.2969 31.2956C40.2271 31.3771 40.1573 31.4585 40.0816 31.54C39.7093 31.924 39.2729 32.2498 38.7842 32.4883C38.7551 32.5 38.7318 32.5116 38.7027 32.5232C38.6038 32.5698 38.4933 32.6163 38.3886 32.6512C38.3886 32.6512 38.3828 32.6512 38.3828 32.6571C38.2664 32.6978 38.1442 32.7385 38.0162 32.7734C37.6438 32.8723 37.254 32.9247 36.8467 32.9247H36.7944C36.6024 32.9247 36.4104 32.9072 36.2242 32.884C35.8111 32.8258 35.4213 32.7094 35.0606 32.5523C34.8744 32.4709 34.6998 32.3836 34.5311 32.2789C34.4671 32.2382 34.4089 32.2032 34.3507 32.1625C34.2286 32.0811 34.118 31.9938 34.0075 31.9065C33.8969 31.8134 33.7864 31.7145 33.6875 31.6156C32.8787 30.8011 32.3726 29.684 32.3726 28.4563V19.7291C32.3726 18.5014 32.8787 17.3785 33.6875 16.5698C34.2286 16.0229 34.9093 15.6214 35.6715 15.412C36.0438 15.3072 36.4395 15.2549 36.8467 15.2549C37.1318 15.2549 37.4111 15.284 37.6787 15.3363C39.174 15.6156 40.4133 16.6512 40.9777 18.0243C41.1987 18.5538 41.3209 19.1298 41.3209 19.7291V19.7291Z" stroke="black" stroke-linecap="round" stroke-linejoin="round"/>
<path d="M29.83 38.1032V40.4072C29.83 40.733 29.5624 41.0007 29.2308 41.0007H22.278C21.9464 41.0007 21.6846 40.733 21.6846 40.4072V38.1032C21.6846 37.7774 21.9464 37.5098 22.278 37.5098H29.2308C29.5624 37.5098 29.83 37.7774 29.83 38.1032Z" fill="white" stroke="black" stroke-linecap="round" stroke-linejoin="round"/>
<path d="M17.6558 28.3693C17.6558 25.7162 20.1634 23.5635 23.2529 23.5635C26.3423 23.5635 28.8499 25.7162 28.8499 28.3693C28.8499 30.6617 26.9823 32.57 24.4805 33.0529C24.5038 33.3264 24.6725 33.8442 25.3358 34.8042C25.3358 34.8042 23.6834 34.6413 22.5896 33.1344C19.8143 32.8493 17.6616 30.8246 17.6616 28.3693H17.6558Z" fill="#4168F6"/>
<path fill-rule="evenodd" clip-rule="evenodd" d="M21.1429 28.384C21.1429 28.7805 20.8215 29.1019 20.425 29.1019C20.0285 29.1019 19.707 28.7805 19.707 28.384C19.707 27.9875 20.0285 27.666 20.425 27.666C20.8215 27.666 21.1429 27.9875 21.1429 28.384ZM23.2966 29.1019C23.6931 29.1019 24.0145 28.7805 24.0145 28.384C24.0145 27.9875 23.6931 27.666 23.2966 27.666C22.9001 27.666 22.5786 27.9875 22.5786 28.384C22.5786 28.7805 22.9001 29.1019 23.2966 29.1019ZM26.1687 29.1019C26.5652 29.1019 26.8866 28.7805 26.8866 28.384C26.8866 27.9875 26.5652 27.666 26.1687 27.666C25.7722 27.666 25.4507 27.9875 25.4507 28.384C25.4507 28.7805 25.7722 29.1019 26.1687 29.1019Z" fill="white"/>
</svg>
