<svg width="313" height="221" viewBox="0 0 313 221" fill="none" xmlns="http://www.w3.org/2000/svg">
<path d="M93.8232 152.303V158.673C93.8232 161.306 102.984 163.408 114.267 163.408C125.55 163.408 134.71 161.285 134.71 158.673V152.303H93.8232Z" fill="#F2F4F6" stroke="#1A1E27" stroke-width="0.71" stroke-linecap="round" stroke-linejoin="round"/>
<path d="M114.267 157.122C125.558 157.122 134.71 155.002 134.71 152.387C134.71 149.772 125.558 147.652 114.267 147.652C102.976 147.652 93.8232 149.772 93.8232 152.387C93.8232 155.002 102.976 157.122 114.267 157.122Z" fill="white" stroke="#1A1E27" stroke-width="0.71" stroke-linecap="round" stroke-linejoin="round"/>
<path d="M93.8232 146.358V152.6C93.8232 155.212 102.984 157.335 114.267 157.335C125.55 157.335 134.71 155.212 134.71 152.6V146.358H93.8232Z" fill="#F2F4F6" stroke="#1A1E27" stroke-width="0.71" stroke-linecap="round" stroke-linejoin="round"/>
<path d="M114.267 151.093C125.558 151.093 134.71 148.973 134.71 146.357C134.71 143.742 125.558 141.622 114.267 141.622C102.976 141.622 93.8232 143.742 93.8232 146.357C93.8232 148.973 102.976 151.093 114.267 151.093Z" fill="white" stroke="#1A1E27" stroke-width="0.71" stroke-linecap="round" stroke-linejoin="round"/>
<path d="M93.8232 140.349V146.592C93.8232 149.204 102.984 151.306 114.267 151.306C125.55 151.306 134.71 149.182 134.71 146.592V140.349H93.8232Z" fill="#F2F4F6" stroke="#1A1E27" stroke-width="0.71" stroke-linecap="round" stroke-linejoin="round"/>
<path d="M114.267 145.084C125.558 145.084 134.71 142.964 134.71 140.348C134.71 137.733 125.558 135.613 114.267 135.613C102.976 135.613 93.8232 137.733 93.8232 140.348C93.8232 142.964 102.976 145.084 114.267 145.084Z" fill="white" stroke="#1A1E27" stroke-width="0.71" stroke-linecap="round" stroke-linejoin="round"/>
<path d="M93.8232 134.317V140.56C93.8232 143.172 102.984 145.296 114.267 145.296C125.55 145.296 134.71 143.172 134.71 140.56V134.317H93.8232Z" fill="#F2F4F6" stroke="#1A1E27" stroke-width="0.71" stroke-linecap="round" stroke-linejoin="round"/>
<path d="M114.267 139.075C125.558 139.075 134.71 136.955 134.71 134.339C134.71 131.724 125.558 129.604 114.267 129.604C102.976 129.604 93.8232 131.724 93.8232 134.339C93.8232 136.955 102.976 139.075 114.267 139.075Z" fill="white" stroke="#1A1E27" stroke-width="0.71" stroke-linecap="round" stroke-linejoin="round"/>
<path d="M93.8232 128.307V134.55C93.8232 137.162 102.984 139.285 114.267 139.285C125.55 139.285 134.71 137.162 134.71 134.55V128.307H93.8232Z" fill="#F2F4F6" stroke="#1A1E27" stroke-width="0.71" stroke-linecap="round" stroke-linejoin="round"/>
<path d="M114.267 133.043C125.558 133.043 134.71 130.923 134.71 128.308C134.71 125.692 125.558 123.572 114.267 123.572C102.976 123.572 93.8232 125.692 93.8232 128.308C93.8232 130.923 102.976 133.043 114.267 133.043Z" fill="white" stroke="#1A1E27" stroke-width="0.71" stroke-linecap="round" stroke-linejoin="round"/>
<path d="M135.167 152.303V158.673C135.167 161.306 144.328 163.408 155.611 163.408C166.894 163.408 176.054 161.285 176.054 158.673V152.303H135.167Z" fill="#F2F4F6" stroke="#1A1E27" stroke-width="0.71" stroke-linecap="round" stroke-linejoin="round"/>
<path d="M155.611 157.122C166.901 157.122 176.054 155.002 176.054 152.387C176.054 149.772 166.901 147.652 155.611 147.652C144.32 147.652 135.167 149.772 135.167 152.387C135.167 155.002 144.32 157.122 155.611 157.122Z" fill="white" stroke="#1A1E27" stroke-width="0.71" stroke-linecap="round" stroke-linejoin="round"/>
<path d="M135.167 146.358V152.6C135.167 155.212 144.328 157.335 155.611 157.335C166.894 157.335 176.054 155.212 176.054 152.6V146.358H135.167Z" fill="#F2F4F6" stroke="#1A1E27" stroke-width="0.71" stroke-linecap="round" stroke-linejoin="round"/>
<path d="M155.611 151.093C166.901 151.093 176.054 148.973 176.054 146.357C176.054 143.742 166.901 141.622 155.611 141.622C144.32 141.622 135.167 143.742 135.167 146.357C135.167 148.973 144.32 151.093 155.611 151.093Z" fill="white" stroke="#1A1E27" stroke-width="0.71" stroke-linecap="round" stroke-linejoin="round"/>
<path d="M135.167 140.349V146.592C135.167 149.204 144.328 151.306 155.611 151.306C166.894 151.306 176.054 149.182 176.054 146.592V140.349H135.167Z" fill="#F2F4F6" stroke="#1A1E27" stroke-width="0.71" stroke-linecap="round" stroke-linejoin="round"/>
<path d="M155.611 145.084C166.901 145.084 176.054 142.964 176.054 140.348C176.054 137.733 166.901 135.613 155.611 135.613C144.32 135.613 135.167 137.733 135.167 140.348C135.167 142.964 144.32 145.084 155.611 145.084Z" fill="white" stroke="#1A1E27" stroke-width="0.71" stroke-linecap="round" stroke-linejoin="round"/>
<path d="M135.167 134.317V140.56C135.167 143.172 144.328 145.296 155.611 145.296C166.894 145.296 176.054 143.172 176.054 140.56V134.317H135.167Z" fill="#F2F4F6" stroke="#1A1E27" stroke-width="0.71" stroke-linecap="round" stroke-linejoin="round"/>
<path d="M155.611 139.075C166.901 139.075 176.054 136.955 176.054 134.339C176.054 131.724 166.901 129.604 155.611 129.604C144.32 129.604 135.167 131.724 135.167 134.339C135.167 136.955 144.32 139.075 155.611 139.075Z" fill="white" stroke="#1A1E27" stroke-width="0.71" stroke-linecap="round" stroke-linejoin="round"/>
<path d="M135.167 128.307V134.55C135.167 137.162 144.328 139.285 155.611 139.285C166.894 139.285 176.054 137.162 176.054 134.55V128.307H135.167Z" fill="#F2F4F6" stroke="#1A1E27" stroke-width="0.71" stroke-linecap="round" stroke-linejoin="round"/>
<path d="M155.611 133.043C166.901 133.043 176.054 130.923 176.054 128.308C176.054 125.692 166.901 123.572 155.611 123.572C144.32 123.572 135.167 125.692 135.167 128.308C135.167 130.923 144.32 133.043 155.611 133.043Z" fill="white" stroke="#1A1E27" stroke-width="0.71" stroke-linecap="round" stroke-linejoin="round"/>
<path d="M176.531 152.303V158.673C176.531 161.306 185.67 163.408 196.975 163.408C208.279 163.408 217.397 161.285 217.397 158.673V152.303H176.531Z" fill="#F2F4F6" stroke="#1A1E27" stroke-width="0.71" stroke-linecap="round" stroke-linejoin="round"/>
<path d="M196.95 157.122C208.241 157.122 217.394 155.002 217.394 152.387C217.394 149.772 208.241 147.652 196.95 147.652C185.66 147.652 176.507 149.772 176.507 152.387C176.507 155.002 185.66 157.122 196.95 157.122Z" fill="white" stroke="#1A1E27" stroke-width="0.71" stroke-linecap="round" stroke-linejoin="round"/>
<path d="M176.531 146.358V152.6C176.531 155.212 185.67 157.335 196.975 157.335C208.279 157.335 217.397 155.212 217.397 152.6V146.358H176.531Z" fill="#F2F4F6" stroke="#1A1E27" stroke-width="0.71" stroke-linecap="round" stroke-linejoin="round"/>
<path d="M196.95 151.093C208.241 151.093 217.394 148.973 217.394 146.357C217.394 143.742 208.241 141.622 196.95 141.622C185.66 141.622 176.507 143.742 176.507 146.357C176.507 148.973 185.66 151.093 196.95 151.093Z" fill="white" stroke="#1A1E27" stroke-width="0.71" stroke-linecap="round" stroke-linejoin="round"/>
<path d="M176.531 140.349V146.592C176.531 149.204 185.67 151.306 196.975 151.306C208.279 151.306 217.397 149.182 217.397 146.592V140.349H176.531Z" fill="#F2F4F6" stroke="#1A1E27" stroke-width="0.71" stroke-linecap="round" stroke-linejoin="round"/>
<path d="M196.95 145.084C208.241 145.084 217.394 142.964 217.394 140.348C217.394 137.733 208.241 135.613 196.95 135.613C185.66 135.613 176.507 137.733 176.507 140.348C176.507 142.964 185.66 145.084 196.95 145.084Z" fill="white" stroke="#1A1E27" stroke-width="0.71" stroke-linecap="round" stroke-linejoin="round"/>
<path d="M176.531 134.317V140.56C176.531 143.172 185.67 145.296 196.975 145.296C208.279 145.296 217.397 143.172 217.397 140.56V134.317H176.531Z" fill="#F2F4F6" stroke="#1A1E27" stroke-width="0.71" stroke-linecap="round" stroke-linejoin="round"/>
<path d="M196.95 139.075C208.241 139.075 217.394 136.955 217.394 134.339C217.394 131.724 208.241 129.604 196.95 129.604C185.66 129.604 176.507 131.724 176.507 134.339C176.507 136.955 185.66 139.075 196.95 139.075Z" fill="white" stroke="#1A1E27" stroke-width="0.71" stroke-linecap="round" stroke-linejoin="round"/>
<path d="M176.531 128.307V134.55C176.531 137.162 185.67 139.285 196.975 139.285C208.279 139.285 217.397 137.162 217.397 134.55V128.307H176.531Z" fill="#F2F4F6" stroke="#1A1E27" stroke-width="0.71" stroke-linecap="round" stroke-linejoin="round"/>
<path d="M196.95 133.043C208.241 133.043 217.394 130.923 217.394 128.308C217.394 125.692 208.241 123.572 196.95 123.572C185.66 123.572 176.507 125.692 176.507 128.308C176.507 130.923 185.66 133.043 196.95 133.043Z" fill="white" stroke="#1A1E27" stroke-width="0.71" stroke-linecap="round" stroke-linejoin="round"/>
<path d="M73.4229 180.715V186.937C73.4229 189.57 82.5834 191.672 93.8664 191.672C105.149 191.672 114.31 189.549 114.31 186.937V180.715H73.4229Z" fill="#F2F4F6" stroke="#1A1E27" stroke-width="0.71" stroke-linecap="round" stroke-linejoin="round"/>
<path d="M93.8664 185.451C105.157 185.451 114.31 183.331 114.31 180.716C114.31 178.1 105.157 175.98 93.8664 175.98C82.5758 175.98 73.4229 178.1 73.4229 180.716C73.4229 183.331 82.5758 185.451 93.8664 185.451Z" fill="white" stroke="#1A1E27" stroke-width="0.71" stroke-linecap="round" stroke-linejoin="round"/>
<path d="M73.4229 174.685V180.928C73.4229 183.54 82.5834 185.663 93.8664 185.663C105.149 185.663 114.31 183.54 114.31 180.928V174.685H73.4229Z" fill="#F2F4F6" stroke="#1A1E27" stroke-width="0.71" stroke-linecap="round" stroke-linejoin="round"/>
<path d="M93.8664 179.42C105.157 179.42 114.31 177.3 114.31 174.685C114.31 172.07 105.157 169.95 93.8664 169.95C82.5758 169.95 73.4229 172.07 73.4229 174.685C73.4229 177.3 82.5758 179.42 93.8664 179.42Z" fill="white" stroke="#1A1E27" stroke-width="0.71" stroke-linecap="round" stroke-linejoin="round"/>
<path d="M73.4229 168.676V174.898C73.4229 177.531 82.5834 179.634 93.8664 179.634C105.149 179.634 114.31 177.51 114.31 174.898V168.676H73.4229Z" fill="#F2F4F6" stroke="#1A1E27" stroke-width="0.71" stroke-linecap="round" stroke-linejoin="round"/>
<path d="M93.8664 173.412C105.157 173.412 114.31 171.292 114.31 168.677C114.31 166.061 105.157 163.941 93.8664 163.941C82.5758 163.941 73.4229 166.061 73.4229 168.677C73.4229 171.292 82.5758 173.412 93.8664 173.412Z" fill="white" stroke="#1A1E27" stroke-width="0.71" stroke-linecap="round" stroke-linejoin="round"/>
<path d="M73.4229 162.645V168.888C73.4229 171.5 82.5834 173.624 93.8664 173.624C105.149 173.624 114.31 171.5 114.31 168.888V162.645H73.4229Z" fill="#F2F4F6" stroke="#1A1E27" stroke-width="0.71" stroke-linecap="round" stroke-linejoin="round"/>
<path d="M93.8664 167.381C105.157 167.381 114.31 165.261 114.31 162.645C114.31 160.03 105.157 157.91 93.8664 157.91C82.5758 157.91 73.4229 160.03 73.4229 162.645C73.4229 165.261 82.5758 167.381 93.8664 167.381Z" fill="white" stroke="#1A1E27" stroke-width="0.71" stroke-linecap="round" stroke-linejoin="round"/>
<path d="M73.4229 156.551V162.921C73.4229 165.533 82.5834 167.656 93.8664 167.656C105.149 167.656 114.31 165.533 114.31 162.921V156.551H73.4229Z" fill="#F2F4F6" stroke="#1A1E27" stroke-width="0.71" stroke-linecap="round" stroke-linejoin="round"/>
<path d="M93.8664 161.37C105.157 161.37 114.31 159.25 114.31 156.635C114.31 154.019 105.157 151.899 93.8664 151.899C82.5758 151.899 73.4229 154.019 73.4229 156.635C73.4229 159.25 82.5758 161.37 93.8664 161.37Z" fill="white" stroke="#1A1E27" stroke-width="0.71" stroke-linecap="round" stroke-linejoin="round"/>
<path d="M114.787 180.715V186.937C114.787 189.57 123.926 191.672 135.231 191.672C146.535 191.672 155.653 189.549 155.653 186.937V180.715H114.787Z" fill="#F2F4F6" stroke="#1A1E27" stroke-width="0.71" stroke-linecap="round" stroke-linejoin="round"/>
<path d="M135.231 185.451C146.521 185.451 155.674 183.331 155.674 180.716C155.674 178.1 146.521 175.98 135.231 175.98C123.94 175.98 114.787 178.1 114.787 180.716C114.787 183.331 123.94 185.451 135.231 185.451Z" fill="white" stroke="#1A1E27" stroke-width="0.71" stroke-linecap="round" stroke-linejoin="round"/>
<path d="M114.787 174.685V180.928C114.787 183.54 123.926 185.663 135.231 185.663C146.535 185.663 155.653 183.54 155.653 180.928V174.685H114.787Z" fill="#F2F4F6" stroke="#1A1E27" stroke-width="0.71" stroke-linecap="round" stroke-linejoin="round"/>
<path d="M135.231 179.42C146.521 179.42 155.674 177.3 155.674 174.685C155.674 172.07 146.521 169.95 135.231 169.95C123.94 169.95 114.787 172.07 114.787 174.685C114.787 177.3 123.94 179.42 135.231 179.42Z" fill="white" stroke="#1A1E27" stroke-width="0.71" stroke-linecap="round" stroke-linejoin="round"/>
<path d="M114.787 168.676V174.898C114.787 177.531 123.926 179.634 135.231 179.634C146.535 179.634 155.653 177.51 155.653 174.898V168.676H114.787Z" fill="#F2F4F6" stroke="#1A1E27" stroke-width="0.71" stroke-linecap="round" stroke-linejoin="round"/>
<path d="M135.231 173.412C146.521 173.412 155.674 171.292 155.674 168.677C155.674 166.061 146.521 163.941 135.231 163.941C123.94 163.941 114.787 166.061 114.787 168.677C114.787 171.292 123.94 173.412 135.231 173.412Z" fill="white" stroke="#1A1E27" stroke-width="0.71" stroke-linecap="round" stroke-linejoin="round"/>
<path d="M114.787 162.645V168.888C114.787 171.5 123.926 173.624 135.231 173.624C146.535 173.624 155.653 171.5 155.653 168.888V162.645H114.787Z" fill="#F2F4F6" stroke="#1A1E27" stroke-width="0.71" stroke-linecap="round" stroke-linejoin="round"/>
<path d="M135.231 167.381C146.521 167.381 155.674 165.261 155.674 162.645C155.674 160.03 146.521 157.91 135.231 157.91C123.94 157.91 114.787 160.03 114.787 162.645C114.787 165.261 123.94 167.381 135.231 167.381Z" fill="white" stroke="#1A1E27" stroke-width="0.71" stroke-linecap="round" stroke-linejoin="round"/>
<path d="M114.787 156.551V162.921C114.787 165.533 123.926 167.656 135.231 167.656C146.535 167.656 155.653 165.533 155.653 162.921V156.551H114.787Z" fill="#F2F4F6" stroke="#1A1E27" stroke-width="0.71" stroke-linecap="round" stroke-linejoin="round"/>
<path d="M135.231 161.37C146.521 161.37 155.674 159.25 155.674 156.635C155.674 154.019 146.521 151.899 135.231 151.899C123.94 151.899 114.787 154.019 114.787 156.635C114.787 159.25 123.94 161.37 135.231 161.37Z" fill="white" stroke="#1A1E27" stroke-width="0.71" stroke-linecap="round" stroke-linejoin="round"/>
<path d="M156.129 180.715V186.937C156.129 189.57 165.29 191.672 176.572 191.672C187.855 191.672 197.016 189.549 197.016 186.937V180.715H156.129Z" fill="#F2F4F6" stroke="#1A1E27" stroke-width="0.71" stroke-linecap="round" stroke-linejoin="round"/>
<path d="M176.572 185.451C187.863 185.451 197.016 183.331 197.016 180.716C197.016 178.1 187.863 175.98 176.572 175.98C165.282 175.98 156.129 178.1 156.129 180.716C156.129 183.331 165.282 185.451 176.572 185.451Z" fill="white" stroke="#1A1E27" stroke-width="0.71" stroke-linecap="round" stroke-linejoin="round"/>
<path d="M156.129 174.685V180.928C156.129 183.54 165.29 185.663 176.572 185.663C187.855 185.663 197.016 183.54 197.016 180.928V174.685H156.129Z" fill="#F2F4F6" stroke="#1A1E27" stroke-width="0.71" stroke-linecap="round" stroke-linejoin="round"/>
<path d="M176.572 179.42C187.863 179.42 197.016 177.3 197.016 174.685C197.016 172.07 187.863 169.95 176.572 169.95C165.282 169.95 156.129 172.07 156.129 174.685C156.129 177.3 165.282 179.42 176.572 179.42Z" fill="white" stroke="#1A1E27" stroke-width="0.71" stroke-linecap="round" stroke-linejoin="round"/>
<path d="M156.129 168.676V174.898C156.129 177.531 165.29 179.634 176.572 179.634C187.855 179.634 197.016 177.51 197.016 174.898V168.676H156.129Z" fill="#F2F4F6" stroke="#1A1E27" stroke-width="0.71" stroke-linecap="round" stroke-linejoin="round"/>
<path d="M176.572 173.412C187.863 173.412 197.016 171.292 197.016 168.677C197.016 166.061 187.863 163.941 176.572 163.941C165.282 163.941 156.129 166.061 156.129 168.677C156.129 171.292 165.282 173.412 176.572 173.412Z" fill="white" stroke="#1A1E27" stroke-width="0.71" stroke-linecap="round" stroke-linejoin="round"/>
<path d="M156.129 162.645V168.888C156.129 171.5 165.29 173.624 176.572 173.624C187.855 173.624 197.016 171.5 197.016 168.888V162.645H156.129Z" fill="#F2F4F6" stroke="#1A1E27" stroke-width="0.71" stroke-linecap="round" stroke-linejoin="round"/>
<path d="M176.572 167.381C187.863 167.381 197.016 165.261 197.016 162.645C197.016 160.03 187.863 157.91 176.572 157.91C165.282 157.91 156.129 160.03 156.129 162.645C156.129 165.261 165.282 167.381 176.572 167.381Z" fill="white" stroke="#1A1E27" stroke-width="0.71" stroke-linecap="round" stroke-linejoin="round"/>
<path d="M156.129 156.551V162.921C156.129 165.533 165.29 167.656 176.572 167.656C187.855 167.656 197.016 165.533 197.016 162.921V156.551H156.129Z" fill="#F2F4F6" stroke="#1A1E27" stroke-width="0.71" stroke-linecap="round" stroke-linejoin="round"/>
<path d="M176.572 161.37C187.863 161.37 197.016 159.25 197.016 156.635C197.016 154.019 187.863 151.899 176.572 151.899C165.282 151.899 156.129 154.019 156.129 156.635C156.129 159.25 165.282 161.37 176.572 161.37Z" fill="white" stroke="#1A1E27" stroke-width="0.71" stroke-linecap="round" stroke-linejoin="round"/>
<path d="M197.43 180.715V186.937C197.43 189.57 206.569 191.672 217.852 191.672C229.135 191.672 238.295 189.549 238.295 186.937V180.715H197.43Z" fill="#F2F4F6" stroke="#1A1E27" stroke-width="0.71" stroke-linecap="round" stroke-linejoin="round"/>
<path d="M217.913 185.451C229.204 185.451 238.357 183.331 238.357 180.716C238.357 178.1 229.204 175.98 217.913 175.98C206.623 175.98 197.47 178.1 197.47 180.716C197.47 183.331 206.623 185.451 217.913 185.451Z" fill="white" stroke="#1A1E27" stroke-width="0.71" stroke-linecap="round" stroke-linejoin="round"/>
<path d="M197.43 174.685V180.928C197.43 183.54 206.569 185.663 217.852 185.663C229.135 185.663 238.295 183.54 238.295 180.928V174.685H197.43Z" fill="#F2F4F6" stroke="#1A1E27" stroke-width="0.71" stroke-linecap="round" stroke-linejoin="round"/>
<path d="M217.913 179.42C229.204 179.42 238.357 177.3 238.357 174.685C238.357 172.07 229.204 169.95 217.913 169.95C206.623 169.95 197.47 172.07 197.47 174.685C197.47 177.3 206.623 179.42 217.913 179.42Z" fill="white" stroke="#1A1E27" stroke-width="0.71" stroke-linecap="round" stroke-linejoin="round"/>
<path d="M197.43 168.676V174.898C197.43 177.531 206.569 179.634 217.852 179.634C229.135 179.634 238.295 177.51 238.295 174.898V168.676H197.43Z" fill="#F2F4F6" stroke="#1A1E27" stroke-width="0.71" stroke-linecap="round" stroke-linejoin="round"/>
<path d="M217.913 173.412C229.204 173.412 238.357 171.292 238.357 168.677C238.357 166.061 229.204 163.941 217.913 163.941C206.623 163.941 197.47 166.061 197.47 168.677C197.47 171.292 206.623 173.412 217.913 173.412Z" fill="white" stroke="#1A1E27" stroke-width="0.71" stroke-linecap="round" stroke-linejoin="round"/>
<path d="M197.43 162.645V168.888C197.43 171.5 206.569 173.624 217.852 173.624C229.135 173.624 238.295 171.5 238.295 168.888V162.645H197.43Z" fill="#F2F4F6" stroke="#1A1E27" stroke-width="0.71" stroke-linecap="round" stroke-linejoin="round"/>
<path d="M217.913 167.381C229.204 167.381 238.357 165.261 238.357 162.645C238.357 160.03 229.204 157.91 217.913 157.91C206.623 157.91 197.47 160.03 197.47 162.645C197.47 165.261 206.623 167.381 217.913 167.381Z" fill="white" stroke="#1A1E27" stroke-width="0.71" stroke-linecap="round" stroke-linejoin="round"/>
<path d="M197.43 156.551V162.921C197.43 165.533 206.569 167.656 217.852 167.656C229.135 167.656 238.295 165.533 238.295 162.921V156.551H197.43Z" fill="#F2F4F6" stroke="#1A1E27" stroke-width="0.71" stroke-linecap="round" stroke-linejoin="round"/>
<path d="M217.913 161.37C229.204 161.37 238.357 159.25 238.357 156.635C238.357 154.019 229.204 151.899 217.913 151.899C206.623 151.899 197.47 154.019 197.47 156.635C197.47 159.25 206.623 161.37 217.913 161.37Z" fill="white" stroke="#1A1E27" stroke-width="0.71" stroke-linecap="round" stroke-linejoin="round"/>
<path d="M52.7637 209.022V215.265C52.7637 217.877 61.9027 220 73.2073 220C84.5119 220 93.6292 217.877 93.6292 215.265V209.022H52.7637Z" fill="#F2F4F6" stroke="#1A1E27" stroke-width="0.71" stroke-linecap="round" stroke-linejoin="round"/>
<path d="M73.1857 213.778C84.4764 213.778 93.6293 211.658 93.6293 209.043C93.6293 206.427 84.4764 204.307 73.1857 204.307C61.8951 204.307 52.7422 206.427 52.7422 209.043C52.7422 211.658 61.8951 213.778 73.1857 213.778Z" fill="white" stroke="#1A1E27" stroke-width="0.71" stroke-linecap="round" stroke-linejoin="round"/>
<path d="M52.7637 203.013V209.256C52.7637 211.868 61.9027 213.992 73.2073 213.992C84.5119 213.992 93.6292 211.868 93.6292 209.256V203.013H52.7637Z" fill="#F2F4F6" stroke="#1A1E27" stroke-width="0.71" stroke-linecap="round" stroke-linejoin="round"/>
<path d="M73.1857 207.749C84.4764 207.749 93.6293 205.629 93.6293 203.014C93.6293 200.398 84.4764 198.278 73.1857 198.278C61.8951 198.278 52.7422 200.398 52.7422 203.014C52.7422 205.629 61.8951 207.749 73.1857 207.749Z" fill="white" stroke="#1A1E27" stroke-width="0.71" stroke-linecap="round" stroke-linejoin="round"/>
<path d="M52.7637 197.003V203.267C52.7637 205.9 61.9027 208.002 73.2073 208.002C84.5119 208.002 93.6292 205.879 93.6292 203.267V197.045L52.7637 197.003Z" fill="#F2F4F6" stroke="#1A1E27" stroke-width="0.71" stroke-linecap="round" stroke-linejoin="round"/>
<path d="M73.1857 201.739C84.4764 201.739 93.6293 199.619 93.6293 197.003C93.6293 194.388 84.4764 192.268 73.1857 192.268C61.8951 192.268 52.7422 194.388 52.7422 197.003C52.7422 199.619 61.8951 201.739 73.1857 201.739Z" fill="white" stroke="#1A1E27" stroke-width="0.71" stroke-linecap="round" stroke-linejoin="round"/>
<path d="M52.7637 190.974V197.217C52.7637 199.828 61.9027 201.952 73.2073 201.952C84.5119 201.952 93.6292 199.828 93.6292 197.217V190.974H52.7637Z" fill="#F2F4F6" stroke="#1A1E27" stroke-width="0.71" stroke-linecap="round" stroke-linejoin="round"/>
<path d="M73.1857 195.709C84.4764 195.709 93.6293 193.589 93.6293 190.973C93.6293 188.358 84.4764 186.238 73.1857 186.238C61.8951 186.238 52.7422 188.358 52.7422 190.973C52.7422 193.589 61.8951 195.709 73.1857 195.709Z" fill="white" stroke="#1A1E27" stroke-width="0.71" stroke-linecap="round" stroke-linejoin="round"/>
<path d="M52.7637 184.962V191.205C52.7637 193.817 61.9027 195.919 73.2073 195.919C84.5119 195.919 93.6292 193.796 93.6292 191.205V184.962H52.7637Z" fill="#F2F4F6" stroke="#1A1E27" stroke-width="0.71" stroke-linecap="round" stroke-linejoin="round"/>
<path d="M73.1857 189.698C84.4764 189.698 93.6293 187.578 93.6293 184.963C93.6293 182.348 84.4764 180.228 73.1857 180.228C61.8951 180.228 52.7422 182.348 52.7422 184.963C52.7422 187.578 61.8951 189.698 73.1857 189.698Z" fill="white" stroke="#1A1E27" stroke-width="0.71" stroke-linecap="round" stroke-linejoin="round"/>
<path d="M94.1055 209.022V215.265C94.1055 217.877 103.266 220 114.549 220C125.832 220 134.993 217.877 134.993 215.265V209.022H94.1055Z" fill="#F2F4F6" stroke="#1A1E27" stroke-width="0.71" stroke-linecap="round" stroke-linejoin="round"/>
<path d="M114.549 213.778C125.84 213.778 134.993 211.658 134.993 209.043C134.993 206.427 125.84 204.307 114.549 204.307C103.258 204.307 94.1055 206.427 94.1055 209.043C94.1055 211.658 103.258 213.778 114.549 213.778Z" fill="white" stroke="#1A1E27" stroke-width="0.71" stroke-linecap="round" stroke-linejoin="round"/>
<path d="M94.1055 203.013V209.256C94.1055 211.868 103.266 213.992 114.549 213.992C125.832 213.992 134.993 211.868 134.993 209.256V203.013H94.1055Z" fill="#F2F4F6" stroke="#1A1E27" stroke-width="0.71" stroke-linecap="round" stroke-linejoin="round"/>
<path d="M114.549 207.749C125.84 207.749 134.993 205.629 134.993 203.014C134.993 200.398 125.84 198.278 114.549 198.278C103.258 198.278 94.1055 200.398 94.1055 203.014C94.1055 205.629 103.258 207.749 114.549 207.749Z" fill="white" stroke="#1A1E27" stroke-width="0.71" stroke-linecap="round" stroke-linejoin="round"/>
<path d="M94.1055 197.003V203.267C94.1055 205.9 103.266 208.002 114.549 208.002C125.832 208.002 134.993 205.879 134.993 203.267V197.045L94.1055 197.003Z" fill="#F2F4F6" stroke="#1A1E27" stroke-width="0.71" stroke-linecap="round" stroke-linejoin="round"/>
<path d="M114.549 201.739C125.84 201.739 134.993 199.619 134.993 197.003C134.993 194.388 125.84 192.268 114.549 192.268C103.258 192.268 94.1055 194.388 94.1055 197.003C94.1055 199.619 103.258 201.739 114.549 201.739Z" fill="white" stroke="#1A1E27" stroke-width="0.71" stroke-linecap="round" stroke-linejoin="round"/>
<path d="M94.1055 190.974V197.217C94.1055 199.828 103.266 201.952 114.549 201.952C125.832 201.952 134.993 199.828 134.993 197.217V190.974H94.1055Z" fill="#F2F4F6" stroke="#1A1E27" stroke-width="0.71" stroke-linecap="round" stroke-linejoin="round"/>
<path d="M114.549 195.709C125.84 195.709 134.993 193.589 134.993 190.973C134.993 188.358 125.84 186.238 114.549 186.238C103.258 186.238 94.1055 188.358 94.1055 190.973C94.1055 193.589 103.258 195.709 114.549 195.709Z" fill="white" stroke="#1A1E27" stroke-width="0.71" stroke-linecap="round" stroke-linejoin="round"/>
<path d="M94.1055 184.962V191.205C94.1055 193.817 103.266 195.919 114.549 195.919C125.832 195.919 134.993 193.796 134.993 191.205V184.962H94.1055Z" fill="#F2F4F6" stroke="#1A1E27" stroke-width="0.71" stroke-linecap="round" stroke-linejoin="round"/>
<path d="M114.549 189.698C125.84 189.698 134.993 187.578 134.993 184.963C134.993 182.348 125.84 180.228 114.549 180.228C103.258 180.228 94.1055 182.348 94.1055 184.963C94.1055 187.578 103.258 189.698 114.549 189.698Z" fill="white" stroke="#1A1E27" stroke-width="0.71" stroke-linecap="round" stroke-linejoin="round"/>
<path d="M135.473 209.022V215.265C135.473 217.877 144.612 220 155.895 220C167.178 220 176.338 217.877 176.338 215.265V209.022H135.473Z" fill="#F2F4F6" stroke="#1A1E27" stroke-width="0.71" stroke-linecap="round" stroke-linejoin="round"/>
<path d="M155.89 213.778C167.181 213.778 176.333 211.658 176.333 209.043C176.333 206.427 167.181 204.307 155.89 204.307C144.599 204.307 135.446 206.427 135.446 209.043C135.446 211.658 144.599 213.778 155.89 213.778Z" fill="white" stroke="#1A1E27" stroke-width="0.71" stroke-linecap="round" stroke-linejoin="round"/>
<path d="M135.473 203.013V209.256C135.473 211.868 144.612 213.992 155.895 213.992C167.178 213.992 176.338 211.868 176.338 209.256V203.013H135.473Z" fill="#F2F4F6" stroke="#1A1E27" stroke-width="0.71" stroke-linecap="round" stroke-linejoin="round"/>
<path d="M155.89 207.749C167.181 207.749 176.333 205.629 176.333 203.014C176.333 200.398 167.181 198.278 155.89 198.278C144.599 198.278 135.446 200.398 135.446 203.014C135.446 205.629 144.599 207.749 155.89 207.749Z" fill="white" stroke="#1A1E27" stroke-width="0.71" stroke-linecap="round" stroke-linejoin="round"/>
<path d="M135.473 197.003V203.267C135.473 205.9 144.612 208.002 155.895 208.002C167.178 208.002 176.338 205.879 176.338 203.267V197.045L135.473 197.003Z" fill="#F2F4F6" stroke="#1A1E27" stroke-width="0.71" stroke-linecap="round" stroke-linejoin="round"/>
<path d="M155.89 201.739C167.181 201.739 176.333 199.619 176.333 197.003C176.333 194.388 167.181 192.268 155.89 192.268C144.599 192.268 135.446 194.388 135.446 197.003C135.446 199.619 144.599 201.739 155.89 201.739Z" fill="white" stroke="#1A1E27" stroke-width="0.71" stroke-linecap="round" stroke-linejoin="round"/>
<path d="M135.473 190.974V197.217C135.473 199.828 144.612 201.952 155.895 201.952C167.178 201.952 176.338 199.828 176.338 197.217V190.974H135.473Z" fill="#F2F4F6" stroke="#1A1E27" stroke-width="0.71" stroke-linecap="round" stroke-linejoin="round"/>
<path d="M155.89 195.709C167.181 195.709 176.333 193.589 176.333 190.973C176.333 188.358 167.181 186.238 155.89 186.238C144.599 186.238 135.446 188.358 135.446 190.973C135.446 193.589 144.599 195.709 155.89 195.709Z" fill="white" stroke="#1A1E27" stroke-width="0.71" stroke-linecap="round" stroke-linejoin="round"/>
<path d="M135.473 184.962V191.205C135.473 193.817 144.612 195.919 155.895 195.919C167.178 195.919 176.338 193.796 176.338 191.205V184.962H135.473Z" fill="#F2F4F6" stroke="#1A1E27" stroke-width="0.71" stroke-linecap="round" stroke-linejoin="round"/>
<path d="M155.89 189.698C167.181 189.698 176.333 187.578 176.333 184.963C176.333 182.348 167.181 180.228 155.89 180.228C144.599 180.228 135.446 182.348 135.446 184.963C135.446 187.578 144.599 189.698 155.89 189.698Z" fill="white" stroke="#1A1E27" stroke-width="0.71" stroke-linecap="round" stroke-linejoin="round"/>
<path d="M176.811 209.022V215.265C176.811 217.877 185.95 220 197.254 220C208.559 220 217.698 217.877 217.698 215.265V209.022H176.811Z" fill="#F2F4F6" stroke="#1A1E27" stroke-width="0.71" stroke-linecap="round" stroke-linejoin="round"/>
<path d="M197.254 213.778C208.545 213.778 217.698 211.658 217.698 209.043C217.698 206.427 208.545 204.307 197.254 204.307C185.963 204.307 176.811 206.427 176.811 209.043C176.811 211.658 185.963 213.778 197.254 213.778Z" fill="white" stroke="#1A1E27" stroke-width="0.71" stroke-linecap="round" stroke-linejoin="round"/>
<path d="M176.811 203.013V209.256C176.811 211.868 185.95 213.992 197.254 213.992C208.559 213.992 217.698 211.868 217.698 209.256V203.013H176.811Z" fill="#F2F4F6" stroke="#1A1E27" stroke-width="0.71" stroke-linecap="round" stroke-linejoin="round"/>
<path d="M197.254 207.749C208.545 207.749 217.698 205.629 217.698 203.014C217.698 200.398 208.545 198.278 197.254 198.278C185.963 198.278 176.811 200.398 176.811 203.014C176.811 205.629 185.963 207.749 197.254 207.749Z" fill="white" stroke="#1A1E27" stroke-width="0.71" stroke-linecap="round" stroke-linejoin="round"/>
<path d="M176.811 197.003V203.267C176.811 205.9 185.95 208.002 197.254 208.002C208.559 208.002 217.698 205.879 217.698 203.267V197.045L176.811 197.003Z" fill="#F2F4F6" stroke="#1A1E27" stroke-width="0.71" stroke-linecap="round" stroke-linejoin="round"/>
<path d="M197.254 201.739C208.545 201.739 217.698 199.619 217.698 197.003C217.698 194.388 208.545 192.268 197.254 192.268C185.963 192.268 176.811 194.388 176.811 197.003C176.811 199.619 185.963 201.739 197.254 201.739Z" fill="white" stroke="#1A1E27" stroke-width="0.71" stroke-linecap="round" stroke-linejoin="round"/>
<path d="M176.811 190.974V197.217C176.811 199.828 185.95 201.952 197.254 201.952C208.559 201.952 217.698 199.828 217.698 197.217V190.974H176.811Z" fill="#F2F4F6" stroke="#1A1E27" stroke-width="0.71" stroke-linecap="round" stroke-linejoin="round"/>
<path d="M197.254 195.709C208.545 195.709 217.698 193.589 217.698 190.973C217.698 188.358 208.545 186.238 197.254 186.238C185.963 186.238 176.811 188.358 176.811 190.973C176.811 193.589 185.963 195.709 197.254 195.709Z" fill="white" stroke="#1A1E27" stroke-width="0.71" stroke-linecap="round" stroke-linejoin="round"/>
<path d="M176.811 184.962V191.205C176.811 193.817 185.95 195.919 197.254 195.919C208.559 195.919 217.698 193.796 217.698 191.205V184.962H176.811Z" fill="#F2F4F6" stroke="#1A1E27" stroke-width="0.71" stroke-linecap="round" stroke-linejoin="round"/>
<path d="M197.254 189.698C208.545 189.698 217.698 187.578 217.698 184.963C217.698 182.348 208.545 180.228 197.254 180.228C185.963 180.228 176.811 182.348 176.811 184.963C176.811 187.578 185.963 189.698 197.254 189.698Z" fill="white" stroke="#1A1E27" stroke-width="0.71" stroke-linecap="round" stroke-linejoin="round"/>
<path d="M218.152 209.022V215.265C218.152 217.877 227.313 220 238.596 220C249.879 220 259.04 217.877 259.04 215.265V209.022H218.152Z" fill="#F2F4F6" stroke="#1A1E27" stroke-width="0.71" stroke-linecap="round" stroke-linejoin="round"/>
<path d="M238.596 213.778C249.887 213.778 259.04 211.658 259.04 209.043C259.04 206.427 249.887 204.307 238.596 204.307C227.305 204.307 218.152 206.427 218.152 209.043C218.152 211.658 227.305 213.778 238.596 213.778Z" fill="white" stroke="#1A1E27" stroke-width="0.71" stroke-linecap="round" stroke-linejoin="round"/>
<path d="M218.152 203.013V209.256C218.152 211.868 227.313 213.992 238.596 213.992C249.879 213.992 259.04 211.868 259.04 209.256V203.013H218.152Z" fill="#F2F4F6" stroke="#1A1E27" stroke-width="0.71" stroke-linecap="round" stroke-linejoin="round"/>
<path d="M238.596 207.749C249.887 207.749 259.04 205.629 259.04 203.014C259.04 200.398 249.887 198.278 238.596 198.278C227.305 198.278 218.152 200.398 218.152 203.014C218.152 205.629 227.305 207.749 238.596 207.749Z" fill="white" stroke="#1A1E27" stroke-width="0.71" stroke-linecap="round" stroke-linejoin="round"/>
<path d="M218.152 197.003V203.267C218.152 205.9 227.313 208.002 238.596 208.002C249.879 208.002 259.04 205.879 259.04 203.267V197.045L218.152 197.003Z" fill="#F2F4F6" stroke="#1A1E27" stroke-width="0.71" stroke-linecap="round" stroke-linejoin="round"/>
<path d="M238.596 201.739C249.887 201.739 259.04 199.619 259.04 197.003C259.04 194.388 249.887 192.268 238.596 192.268C227.305 192.268 218.152 194.388 218.152 197.003C218.152 199.619 227.305 201.739 238.596 201.739Z" fill="white" stroke="#1A1E27" stroke-width="0.71" stroke-linecap="round" stroke-linejoin="round"/>
<path d="M218.152 190.974V197.217C218.152 199.828 227.313 201.952 238.596 201.952C249.879 201.952 259.04 199.828 259.04 197.217V190.974H218.152Z" fill="#F2F4F6" stroke="#1A1E27" stroke-width="0.71" stroke-linecap="round" stroke-linejoin="round"/>
<path d="M238.596 195.709C249.887 195.709 259.04 193.589 259.04 190.973C259.04 188.358 249.887 186.238 238.596 186.238C227.305 186.238 218.152 188.358 218.152 190.973C218.152 193.589 227.305 195.709 238.596 195.709Z" fill="white" stroke="#1A1E27" stroke-width="0.71" stroke-linecap="round" stroke-linejoin="round"/>
<path d="M218.152 184.962V191.205C218.152 193.817 227.313 195.919 238.596 195.919C249.879 195.919 259.04 193.796 259.04 191.205V184.962H218.152Z" fill="#F2F4F6" stroke="#1A1E27" stroke-width="0.71" stroke-linecap="round" stroke-linejoin="round"/>
<path d="M238.596 189.698C249.887 189.698 259.04 187.578 259.04 184.963C259.04 182.348 249.887 180.228 238.596 180.228C227.305 180.228 218.152 182.348 218.152 184.963C218.152 187.578 227.305 189.698 238.596 189.698Z" fill="white" stroke="#1A1E27" stroke-width="0.71" stroke-linecap="round" stroke-linejoin="round"/>
<g clip-path="url(#clip0_3340_30173)">
<path d="M223.118 0.51001H58.5264V88.669H223.118V0.51001Z" fill="white" stroke="#1A1E27" stroke-width="0.71" stroke-miterlimit="10"/>
<path d="M217.62 6.33875H64.0254V82.8403H217.62V6.33875Z" fill="white" stroke="#1A1E27" stroke-width="0.71" stroke-miterlimit="10"/>
<path d="M92.2949 28.1089H86.4443V78.9788H92.2949V28.1089Z" fill="white" stroke="#1A1E27" stroke-width="0.71" stroke-miterlimit="10"/>
<path d="M105.447 49.7188H99.5967V78.9642H105.447V49.7188Z" fill="white" stroke="#1A1E27" stroke-width="0.71" stroke-miterlimit="10"/>
<path d="M118.615 41.7334H112.765V78.9787H118.615V41.7334Z" fill="white" stroke="#1A1E27" stroke-width="0.71" stroke-miterlimit="10"/>
<path d="M131.782 23.7228H125.932V78.9642H131.782V23.7228Z" fill="white" stroke="#1A1E27" stroke-width="0.71" stroke-miterlimit="10"/>
<path d="M144.934 18.4769H139.084V78.9641H144.934V18.4769Z" fill="white" stroke="#1A1E27" stroke-width="0.71" stroke-miterlimit="10"/>
<path d="M158.102 57.2231H152.252V78.9642H158.102V57.2231Z" fill="#4168F6" stroke="#1A1E27" stroke-width="0.71" stroke-miterlimit="10"/>
<path d="M89.1865 28.1089L102.339 49.5439L115.873 41.7335L128.85 24.364L141.651 18.3021L154.994 57.6895L172.897 40.9029" stroke="#1A1E27" stroke-width="0.71" stroke-linecap="round" stroke-linejoin="bevel"/>
<path d="M167.867 41.5003L172.897 40.9028L172.413 45.1432" stroke="#1A1E27" stroke-width="0.71" stroke-linecap="round" stroke-linejoin="bevel"/>
<path d="M178.029 20.1819H209.555" stroke="#1A1E27" stroke-width="0.71" stroke-miterlimit="10"/>
<path d="M178.029 28.5605H209.555" stroke="#1A1E27" stroke-width="0.71" stroke-miterlimit="10"/>
<path d="M178.029 36.9393H209.555" stroke="#1A1E27" stroke-width="0.71" stroke-miterlimit="10"/>
<path d="M178.029 45.3181H209.555" stroke="#1A1E27" stroke-width="0.71" stroke-miterlimit="10"/>
<path d="M178.029 53.6968H209.555" stroke="#1A1E27" stroke-width="0.71" stroke-miterlimit="10"/>
<path d="M178.029 62.0756H209.555" stroke="#1A1E27" stroke-width="0.71" stroke-miterlimit="10"/>
</g>
<g clip-path="url(#clip1_3340_30173)">
<path d="M143.143 61.6958H143.103C141.794 61.6958 140.726 60.2983 140.726 58.5821C140.726 56.866 141.794 55.4573 143.103 55.4573H143.115C142.972 56.4411 142.897 57.4585 142.897 58.4983C142.897 59.5939 142.977 60.6616 143.137 61.6958H143.143Z" fill="white" stroke="#1A1E27" stroke-width="0.71" stroke-miterlimit="10"/>
<path d="M141.812 58.4419L142.898 58.4924" stroke="#1A1E27" stroke-width="0.71" stroke-miterlimit="10"/>
<path d="M170.245 61.6958H170.285C171.594 61.6958 172.663 60.2983 172.663 58.5821C172.663 56.8548 171.594 55.4573 170.285 55.4573H170.274C170.417 56.4411 170.491 57.4585 170.491 58.4983C170.491 59.5939 170.411 60.6616 170.251 61.6958H170.245Z" fill="white" stroke="#1A1E27" stroke-width="0.71" stroke-miterlimit="10"/>
<path d="M171.577 58.4419L170.49 58.4924" stroke="#1A1E27" stroke-width="0.71" stroke-miterlimit="10"/>
<path d="M190.482 66.306C186.91 77.1604 178.114 80.8996 174.662 82.2578V107.521C174.662 108.846 173.565 110.752 172.204 110.752H171.844C171.816 110.752 171.793 110.774 171.793 110.802V125.686H160.002V113.077C160.002 111.791 158.934 110.752 157.619 110.752H153.944C152.624 110.752 151.561 111.791 151.561 113.077V125.686H139.765V110.802C139.765 110.802 139.736 110.752 139.708 110.752C138.353 110.752 137.25 108.846 137.25 107.521V81.6597C137.279 75.9755 140.096 73.8795 145.429 71.0625C146.772 70.3526 147.092 69.4863 146.143 68.3182C144.063 65.7527 142.805 62.4271 142.805 58.7829C142.805 50.6617 149.035 44.0775 156.722 44.0775C164.409 44.0775 170.638 50.6617 170.638 58.7829C170.638 62.6954 169.192 66.2501 166.832 68.8827C165.855 69.9726 166.181 70.8221 167.438 71.5879C168.615 72.2977 169.644 72.8902 170.53 73.4659H170.536C180.6 77.1324 187.041 64.7075 187.035 63.2152C187.035 63.1313 187.041 63.0419 187.064 62.9525C186.755 62.4438 186.527 61.8793 186.384 61.3148C186.264 60.8453 185.961 59.733 186.481 59.4089C187.218 58.9505 187.853 60.197 188.184 60.9962C189.03 60.2081 190.905 60.4541 191.476 62.1588C192.493 65.177 190.476 66.306 190.476 66.306H190.482Z" fill="white" stroke="#1A1E27" stroke-width="0.71" stroke-miterlimit="10"/>
<path d="M151.424 56.3412C151.424 56.9285 151.139 57.4095 150.784 57.4095C150.43 57.4095 150.149 56.9285 150.149 56.3412C150.149 55.7539 150.43 55.2784 150.784 55.2784C151.139 55.2784 151.424 55.7539 151.424 56.3412Z" fill="#1A1E27"/>
<path d="M160.369 56.1287C160.369 56.716 160.089 57.1971 159.734 57.1971C159.38 57.1971 159.094 56.716 159.094 56.1287C159.094 55.5414 159.374 55.0604 159.734 55.0604C160.094 55.0604 160.369 55.5414 160.369 56.1287Z" fill="#1A1E27"/>
<path d="M155.093 57.4471L153.979 61.6956H156.087L155.093 57.4471Z" fill="#E8BB8A" stroke="#1A1E27" stroke-width="0.71" stroke-linecap="round" stroke-linejoin="round"/>
<path d="M151.601 126.011V128.856H137.725V126.011C137.736 122.953 140.839 120.477 144.663 120.477C148.486 120.477 151.584 122.953 151.601 126.011Z" fill="white" stroke="#1A1E27" stroke-width="0.71" stroke-miterlimit="10"/>
<path d="M173.851 126.011V128.856H159.975V126.011C159.986 122.953 163.089 120.477 166.913 120.477C170.736 120.477 173.834 122.953 173.851 126.011Z" fill="white" stroke="#1A1E27" stroke-width="0.71" stroke-miterlimit="10"/>
<path d="M137.342 103.972H174.337" stroke="#1A1E27" stroke-width="0.71" stroke-miterlimit="10"/>
<path d="M140.074 74.5447C140.074 74.5447 131.735 81.0226 131.084 93.9953C131.084 93.9953 130.867 99.3331 133.136 101.608C135.404 103.883 136.427 100.037 135.742 98.6735C135.056 97.3098 135.65 85.6729 140.68 84.1638" fill="white"/>
<path d="M140.074 74.5447C140.074 74.5447 131.735 81.0226 131.084 93.9953C131.084 93.9953 130.867 99.3331 133.136 101.608C135.404 103.883 136.427 100.037 135.742 98.6735C135.056 97.3098 135.65 85.6729 140.68 84.1638" stroke="#1A1E27" stroke-width="0.71" stroke-miterlimit="10"/>
<path d="M167.633 46.6431C167.633 46.6431 172.72 48.3422 171.479 55.625L170.365 55.748C170.365 55.748 164.53 50.0413 167.633 46.6431Z" fill="#1A1E27"/>
<path d="M166.776 49.2811C166.776 49.2811 170.485 46.397 165.518 42.7584C160.558 39.1142 140.2 37.2977 143.052 55.2616C143.052 55.2616 150.264 38.9633 166.776 49.2811Z" fill="#1A1E27"/>
<path d="M166.946 69.9503L153.824 86.6119L165.552 79.4185L164.34 76.2327L170.021 71.8618L166.946 69.9503Z" fill="white" stroke="#1A1E27" stroke-width="0.71" stroke-linejoin="bevel"/>
<path d="M147.492 72.2251C147.492 72.2251 154.288 76.7761 165.089 72.2251H147.492Z" fill="white"/>
<path d="M147.492 72.2251C147.492 72.2251 154.288 76.7761 165.089 72.2251" stroke="#1A1E27" stroke-width="0.71" stroke-miterlimit="10"/>
<path d="M158.665 104V88.7973L146.281 69.4026L143.114 71.588L147.492 76.1432V81.7884L158.477 90.3456" fill="white"/>
<path d="M158.665 104V88.7973L146.281 69.4026L143.114 71.588L147.492 76.1432V81.7884L158.477 90.3456" stroke="#1A1E27" stroke-width="0.71" stroke-miterlimit="10"/>
<path d="M165.353 84.3708H166.781L165.833 86.5621L168.53 83.1857L165.353 84.3708Z" fill="#4168F6"/>
<path d="M189.145 61.6447C189.145 61.6447 186.671 63.9757 190.477 66.3012L189.145 61.6447Z" fill="white"/>
<path d="M189.145 61.6447C189.145 61.6447 186.671 63.9757 190.477 66.3012" stroke="#1A1E27" stroke-width="0.71" stroke-miterlimit="10"/>
<path d="M155.064 67.5588C156.049 67.5588 156.848 66.4025 156.848 64.9762C156.848 63.5498 156.049 62.3936 155.064 62.3936C154.08 62.3936 153.281 63.5498 153.281 64.9762C153.281 66.4025 154.08 67.5588 155.064 67.5588Z" fill="white" stroke="#1A1E27" stroke-width="0.71" stroke-miterlimit="10"/>
<path d="M160.58 62.0305C160.271 61.7622 160.105 61.3597 159.825 61.0578C159.408 60.605 158.836 60.3926 158.225 60.3144C157.008 60.1578 155.899 60.5827 155.196 61.5721C155.116 61.6839 155.059 61.8069 155.007 61.9243C154.956 61.8013 154.899 61.6839 154.819 61.5721C154.121 60.5827 153.007 60.1634 151.79 60.3144C151.178 60.3926 150.612 60.605 150.189 61.0578C149.909 61.3597 149.749 61.7622 149.435 62.0305C148.715 62.651 146.589 62.4945 146.389 61.3597C146.789 63.6908 148.098 64.6411 150.464 64.7082C151.475 64.7361 154.339 64.3504 154.996 63.0759C155.659 64.3504 158.516 64.7361 159.528 64.7082C161.9 64.6411 163.203 63.6908 163.603 61.3597C163.409 62.4945 161.277 62.651 160.557 62.0305H160.58Z" fill="#1A1E27"/>
</g>
<rect x="236.21" y="5.97593" width="71.2548" height="77.2443" fill="white" stroke="#1A1E27" stroke-width="0.8"/>
<path d="M264.821 14.6091H259.206V36.6883H264.821V14.6091Z" fill="#FFC90B" stroke="#1A1E27" stroke-width="0.71" stroke-miterlimit="10"/>
<path d="M255.463 25.6493H249.849V36.6889H255.463V25.6493Z" fill="#4168F6" stroke="#1A1E27" stroke-width="0.71" stroke-miterlimit="10"/>
<path d="M247.041 29.3287H241.427V36.6896H247.041V29.3287Z" fill="#4168F6" stroke="#1A1E27" stroke-width="0.71" stroke-miterlimit="10"/>
<path d="M268.562 50.8442H300.087" stroke="#1A1E27" stroke-width="0.71" stroke-miterlimit="10"/>
<path d="M268.562 58.0742H300.087" stroke="#1A1E27" stroke-width="0.71" stroke-miterlimit="10"/>
<path d="M268.562 66.3678H300.087" stroke="#1A1E27" stroke-width="0.71" stroke-miterlimit="10"/>
<path d="M268.562 74.6659H300.087" stroke="#1A1E27" stroke-width="0.71" stroke-miterlimit="10"/>
<rect x="231.533" y="0.401343" width="80.6126" height="88.3935" stroke="#1A1E27" stroke-width="0.8"/>
<path d="M39.3026 11.7123H12.165V18.1527H39.3026V11.7123Z" fill="#FFC90B" stroke="#1A1E27" stroke-width="0.71" stroke-miterlimit="10"/>
<path d="M12.165 58.629H40.2383" stroke="#1A1E27" stroke-width="0.71" stroke-miterlimit="10"/>
<path d="M12.165 66.9098H40.2383" stroke="#1A1E27" stroke-width="0.71" stroke-miterlimit="10"/>
<path d="M12.165 75.1892H40.2383" stroke="#1A1E27" stroke-width="0.71" stroke-miterlimit="10"/>
<rect x="0.4" y="1.07224" width="51.6035" height="87.5164" stroke="#1A1E27" stroke-width="0.8"/>
<rect x="6.01328" y="6.59226" width="40.3742" height="76.4761" stroke="#1A1E27" stroke-width="0.8"/>
<defs>
<clipPath id="clip0_3340_30173">
<rect width="165.632" height="89.1935" fill="white" transform="translate(58.0127)"/>
</clipPath>
<clipPath id="clip1_3340_30173">
<rect width="61.0902" height="88.6793" fill="white" transform="translate(130.878 40.3718)"/>
</clipPath>
</defs>
</svg>
