<svg width="18" height="18" viewBox="0 0 18 18" fill="none" xmlns="http://www.w3.org/2000/svg">
<path d="M9 0.875C7.39303 0.875 5.82214 1.35152 4.486 2.24431C3.14985 3.1371 2.10844 4.40605 1.49348 5.8907C0.87852 7.37535 0.717618 9.00901 1.03112 10.5851C1.34463 12.1612 2.11846 13.6089 3.25476 14.7452C4.39106 15.8815 5.8388 16.6554 7.41489 16.9689C8.99099 17.2824 10.6247 17.1215 12.1093 16.5065C13.594 15.8916 14.8629 14.8502 15.7557 13.514C16.6485 12.1779 17.125 10.607 17.125 9C17.125 6.84512 16.269 4.77849 14.7452 3.25476C13.2215 1.73102 11.1549 0.875 9 0.875V0.875ZM9 15.875C7.64026 15.875 6.31105 15.4718 5.18046 14.7164C4.04987 13.9609 3.16868 12.8872 2.64833 11.6309C2.12798 10.3747 1.99183 8.99237 2.2571 7.65875C2.52238 6.32513 3.17716 5.10013 4.13864 4.13864C5.10013 3.17715 6.32514 2.52237 7.65876 2.2571C8.99238 1.99183 10.3747 2.12798 11.631 2.64833C12.8872 3.16868 13.9609 4.04987 14.7164 5.18045C15.4718 6.31104 15.875 7.64025 15.875 9C15.875 10.8234 15.1507 12.572 13.8614 13.8614C12.5721 15.1507 10.8234 15.875 9 15.875Z" fill="#6D7582"/>
<path d="M9.73125 4.08139C9.27134 3.9707 8.7923 3.96586 8.33025 4.06724C7.86819 4.16863 7.43519 4.37359 7.06387 4.66667C6.69255 4.95975 6.39262 5.3333 6.18668 5.75917C5.98074 6.18503 5.87417 6.6521 5.875 7.12514C5.875 7.2909 5.94085 7.44987 6.05806 7.56708C6.17527 7.68429 6.33424 7.75014 6.5 7.75014C6.66577 7.75014 6.82474 7.68429 6.94195 7.56708C7.05916 7.44987 7.125 7.2909 7.125 7.12514C7.125 6.7543 7.23497 6.39179 7.441 6.08345C7.64703 5.7751 7.93986 5.53478 8.28247 5.39287C8.62508 5.25095 9.00208 5.21382 9.3658 5.28617C9.72951 5.35852 10.0636 5.53709 10.3258 5.79932C10.5881 6.06154 10.7666 6.39563 10.839 6.75935C10.9113 7.12306 10.8742 7.50006 10.7323 7.84267C10.5904 8.18528 10.35 8.47812 10.0417 8.68415C9.73336 8.89017 9.37084 9.00014 9 9.00014C8.83424 9.00014 8.67527 9.06599 8.55806 9.1832C8.44085 9.30041 8.375 9.45938 8.375 9.62514V10.8751C8.375 11.0409 8.44085 11.1999 8.55806 11.3171C8.67527 11.4343 8.83424 11.5001 9 11.5001C9.16576 11.5001 9.32474 11.4343 9.44195 11.3171C9.55916 11.1999 9.625 11.0409 9.625 10.8751V10.1876C10.3429 10.0415 10.9867 9.64771 11.4438 9.07514C11.7433 8.70424 11.9551 8.27041 12.0633 7.8061C12.1716 7.34179 12.1734 6.85902 12.0688 6.39389C11.9325 5.82929 11.6416 5.31383 11.2287 4.90535C10.8158 4.49688 10.2973 4.21155 9.73125 4.08139Z" fill="#6D7582"/>
<path d="M9.44376 12.9315C9.35634 12.8433 9.24465 12.7832 9.12293 12.7588C9.00122 12.7344 8.87499 12.7468 8.76033 12.7944C8.64568 12.842 8.5478 12.9226 8.47918 13.0261C8.41055 13.1295 8.37429 13.2511 8.37501 13.3752C8.37454 13.4575 8.3903 13.539 8.4214 13.6152C8.45251 13.6913 8.49833 13.7606 8.55626 13.819C8.61701 13.8742 8.68677 13.9186 8.76251 13.9502C8.87609 13.9957 9.00051 14.0068 9.12036 13.9822C9.24021 13.9576 9.3502 13.8984 9.43671 13.8119C9.52322 13.7254 9.58243 13.6154 9.60702 13.4956C9.6316 13.3757 9.62047 13.2513 9.57501 13.1377C9.54526 13.061 9.50066 12.9909 9.44376 12.9315Z" fill="#6D7582"/>
</svg>
