<svg width="11" height="20" viewBox="0 0 11 20" fill="none" xmlns="http://www.w3.org/2000/svg">
<path d="M9.54669 19.0937C9.45433 19.0938 9.36288 19.0756 9.27754 19.0403C9.19221 19.005 9.11467 18.9532 9.04934 18.8879L0.382623 10.2208C0.250808 10.0889 0.176758 9.91008 0.176758 9.72364C0.176758 9.5372 0.250808 9.35839 0.382623 9.22653L9.04934 0.559347C9.11462 0.494035 9.19213 0.44222 9.27744 0.406862C9.36274 0.371503 9.45418 0.353293 9.54652 0.353272C9.63886 0.35325 9.73031 0.371417 9.81563 0.406735C9.90095 0.442053 9.97848 0.493831 10.0438 0.559112C10.1091 0.624394 10.1609 0.7019 10.1963 0.787206C10.2316 0.872512 10.2498 0.963947 10.2499 1.05629C10.2499 1.14863 10.2317 1.24008 10.1964 1.3254C10.1611 1.41072 10.1093 1.48825 10.044 1.55357L1.87419 9.72341L10.044 17.8932C10.1424 17.9916 10.2094 18.1169 10.2366 18.2533C10.2638 18.3898 10.2498 18.5312 10.1966 18.6597C10.1433 18.7882 10.0532 18.8981 9.93749 18.9753C9.8218 19.0526 9.6858 19.0938 9.54669 19.0937Z" fill="#353C49"/>
</svg>
