<svg width="24" height="24" viewBox="0 0 24 24" fill="none" xmlns="http://www.w3.org/2000/svg">
<path d="M21.0378 16.075L17.8628 15.7125C17.1003 15.625 16.3503 15.8875 15.8128 16.425L13.5128 18.725C9.9753 16.925 7.0753 14.0375 5.2753 10.4875L7.5878 8.17501C8.1253 7.63751 8.3878 6.88751 8.3003 6.12501L7.9378 2.97501C7.7878 1.71251 6.7253 0.762512 5.4503 0.762512H3.2878C1.8753 0.762512 0.700295 1.93751 0.787795 3.35001C1.45029 14.025 9.9878 22.55 20.6503 23.2125C22.0628 23.3 23.2378 22.125 23.2378 20.7125V18.55C23.2503 17.2875 22.3003 16.225 21.0378 16.075Z" fill="#4168F6"/>
</svg>
