<svg width="33" height="32" viewBox="0 0 33 32" fill="none" xmlns="http://www.w3.org/2000/svg">
<g clip-path="url(#clip0_4594_32889)">
<path d="M22.8336 17L20.3336 19.5C19.2727 20.5608 17.8338 21.1568 16.3336 21.1568C14.8333 21.1568 13.3944 20.5608 12.3336 19.5V19.5C11.2727 18.4391 10.6768 17.0003 10.6768 15.5C10.6768 13.9997 11.2727 12.5609 12.3336 11.5L14.8336 9L22.8336 17Z" fill="#4168F6"/>
<path d="M22.8336 17L20.3336 19.5C19.2727 20.5608 17.8338 21.1568 16.3336 21.1568C14.8333 21.1568 13.3944 20.5608 12.3336 19.5V19.5C11.2727 18.4391 10.6768 17.0003 10.6768 15.5C10.6768 13.9997 11.2727 12.5609 12.3336 11.5L14.8336 9L22.8336 17Z" stroke="#353C49" stroke-width="1.5" stroke-linecap="round" stroke-linejoin="round"/>
<path d="M17.3335 10.5L19.8335 8" stroke="#353C49" stroke-width="1.5" stroke-linecap="round" stroke-linejoin="round"/>
<path d="M21.3335 14.5L23.8335 12" stroke="#353C49" stroke-width="1.5" stroke-linecap="round" stroke-linejoin="round"/>
<path d="M11.8404 30.1485C14.8425 31.2082 18.1039 31.2853 21.1527 30.3686C24.2015 29.4518 26.8795 27.5888 28.7993 25.0492C30.7191 22.5095 31.781 19.4249 31.8315 16.2416C31.882 13.0584 30.9183 9.94166 29.08 7.34241C27.2416 4.74317 24.624 2.79624 21.6057 1.78334C18.5875 0.770441 15.3253 0.744111 12.2912 1.70816C9.257 2.67221 6.60826 4.57664 4.72821 7.14587C2.84816 9.7151 1.83431 12.8159 1.83338 15.9995C1.73142 18.0883 2.16733 20.1684 3.09938 22.0405C3.85438 23.5825 6.83338 24.9995 8.83338 22.9995L11.8334 19.9995" stroke="#353C49" stroke-width="1.5" stroke-linecap="round" stroke-linejoin="round"/>
</g>
<defs>
<clipPath id="clip0_4594_32889">
<rect width="32" height="32" fill="white" transform="translate(0.833496)"/>
</clipPath>
</defs>
</svg>
