<svg width="24" height="24" viewBox="0 0 24 24" fill="none" xmlns="http://www.w3.org/2000/svg">
<path d="M5.48 5.96C3.4 7.17 2 9.42 2 12C2 14.58 3.4 16.83 5.48 18.04C5.8 18.23 6.01 18.55 6.01 18.92C6.01 19.69 5.17 20.17 4.5 19.78C1.82 18.22 0 15.32 0 12C0 8.68 1.82 5.78 4.5 4.22C5.17 3.83 6.01 4.31 6.01 5.08C6.01 5.45 5.8 5.77 5.48 5.96Z" fill="#757575"/>
<path d="M12 11C11.4477 11 11 11.4477 11 12C11 12.5523 11.4477 13 12 13H18C18.5523 13 19 12.5523 19 12C19 11.4477 18.5523 11 18 11H12Z" fill="#757575"/>
<path fill-rule="evenodd" clip-rule="evenodd" d="M6 12C6 7.04 10.04 3 15 3C19.96 3 24 7.04 24 12C24 16.96 19.96 21 15 21C10.04 21 6 16.96 6 12ZM8 12C8 15.86 11.14 19 15 19C18.86 19 22 15.86 22 12C22 8.14 18.86 5 15 5C11.14 5 8 8.14 8 12Z" fill="#757575"/>
</svg>
