<svg width="51" height="42" viewBox="0 0 51 42" fill="none" xmlns="http://www.w3.org/2000/svg">
<path d="M49.7624 30.5166L35.11 23.3943L35.0271 1L2.37328 5.5997L1.23145 7.72205L1.30161 31.3701L16.9555 41L49.7688 32.5106L49.7624 30.5166Z" fill="#AFAFAF"/>
<path d="M35.1103 23.3943L2.45646 30.5695L2.37354 5.5997L35.0273 1L35.1103 23.3943Z" fill="white"/>
<path d="M35.1099 23.3936L2.45605 30.5688L17.1085 38.9676L49.7623 30.5159L35.1099 23.3936Z" fill="white"/>
<path d="M33.2345 21.31L4.31232 27.662L4.24854 7.69217L33.2345 3.21582V21.31Z" fill="#E8E8E8"/>
<path d="M49.7624 30.5166L35.11 23.3943L35.0271 1L2.37328 5.5997L1.23145 7.72205L1.30161 31.3701L16.9555 41L49.7688 32.5106L49.7624 30.5166Z" stroke="black" stroke-linejoin="round"/>
<path d="M2.45654 30.5688L35.1104 23.3936" stroke="black" stroke-linecap="round" stroke-linejoin="round"/>
<path d="M13.7536 31.6105L10.7555 32.26L8.94385 31.4972L11.942 30.8477L13.7536 31.6105Z" fill="#D4D5D4"/>
<path d="M17.7023 30.7567L14.7042 31.4063L12.8862 30.6359L15.8843 29.9863L17.7023 30.7567Z" fill="#D4D5D4"/>
<path d="M21.6506 29.9042L18.6525 30.5537L16.8345 29.7833L19.8326 29.1338L21.6506 29.9042Z" fill="#D4D5D4"/>
<path d="M25.5929 29.0421L22.6012 29.6917L20.7832 28.9288L23.7813 28.2793L25.5929 29.0421Z" fill="#D4D5D4"/>
<path d="M29.5412 28.1896L26.5431 28.8391L24.7314 28.0763L27.7295 27.4268L29.5412 28.1896Z" fill="#D4D5D4"/>
<path d="M33.4899 27.3368L30.4918 27.9863L28.6738 27.216L31.6719 26.5664L33.4899 27.3368Z" fill="#D4D5D4"/>
<path d="M37.4382 26.4748L34.4401 27.1243L32.6221 26.3615L35.6202 25.7119L37.4382 26.4748Z" fill="#D4D5D4"/>
<path d="M16.9303 32.955L13.9386 33.6045L12.1206 32.8341L15.1187 32.1846L16.9303 32.955Z" fill="#D4D5D4"/>
<path d="M20.8791 32.0939L17.881 32.751L16.0693 31.9806L19.0611 31.3311L20.8791 32.0939Z" fill="#D4D5D4"/>
<path d="M24.8273 31.2414L21.8292 31.8909L20.0112 31.1281L23.0093 30.4785L24.8273 31.2414Z" fill="#D4D5D4"/>
<path d="M28.7761 30.3876L25.778 31.0371L23.96 30.2667L26.9581 29.6172L28.7761 30.3876Z" fill="#D4D5D4"/>
<path d="M32.7179 29.5341L29.7262 30.1836L27.9082 29.4132L30.9063 28.7637L32.7179 29.5341Z" fill="#D4D5D4"/>
<path d="M36.6667 28.672L33.6686 29.3216L31.8569 28.5587L34.8487 27.9092L36.6667 28.672Z" fill="#D4D5D4"/>
<path d="M40.6154 27.8195L37.6173 28.469L35.7993 27.7062L38.7974 27.0566L40.6154 27.8195Z" fill="#D4D5D4"/>
<path d="M20.113 34.2921L17.1149 34.9417L15.2969 34.1788L18.295 33.5293L20.113 34.2921Z" fill="#D4D5D4"/>
<path d="M24.0553 33.4386L21.0572 34.0882L19.2456 33.3253L22.2437 32.6758L24.0553 33.4386Z" fill="#D4D5D4"/>
<path d="M28.0041 32.5848L25.006 33.2344L23.1943 32.464L26.1861 31.8145L28.0041 32.5848Z" fill="#D4D5D4"/>
<path d="M31.9523 31.7238L28.9542 32.3733L27.1362 31.6105L30.1343 30.9609L31.9523 31.7238Z" fill="#D4D5D4"/>
<path d="M35.9015 30.8712L32.9034 31.5208L31.0854 30.7579L34.0836 30.1084L35.9015 30.8712Z" fill="#D4D5D4"/>
<path d="M39.8434 30.0184L36.8453 30.668L35.0337 29.8976L38.0318 29.248L39.8434 30.0184Z" fill="#D4D5D4"/>
<path d="M43.7917 29.1639L40.7936 29.8135L38.9819 29.0431L41.9737 28.3936L43.7917 29.1639Z" fill="#D4D5D4"/>
<path d="M17.3575 35.4639L7.55308 38.2131C7.45101 38.2282 7.34257 38.2131 7.24051 38.1602L2.15011 35.6829C1.56325 35.3959 1.63342 34.414 2.2458 34.3309L12.0502 31.9216C12.1523 31.9065 12.2607 31.9216 12.3628 31.9744L17.4532 34.1043C18.0401 34.3914 17.9699 35.3732 17.3575 35.4563V35.4639Z" fill="white"/>
<path d="M1.90116 34.8372L7.29137 37.3221L17.7656 34.6182L17.689 35.313L7.45084 38.236L1.84375 35.5925L1.90116 34.8372Z" fill="#AFAFAF"/>
<path d="M17.3575 35.4639L7.55308 38.2131C7.45101 38.2282 7.34257 38.2131 7.24051 38.1602L2.15011 35.6829C1.56325 35.3959 1.63342 34.414 2.2458 34.3309L12.0502 31.9216C12.1523 31.9065 12.2607 31.9216 12.3628 31.9744L17.4532 34.1043C18.0401 34.3914 17.9699 35.3732 17.3575 35.4563V35.4639Z" stroke="black" stroke-linejoin="round"/>
<path d="M19.5078 18.5196L16.8541 21.2373C16.007 22.1151 14.7075 22.0037 13.9643 20.9849L13.635 20.5409C12.8937 19.538 12.9877 17.9994 13.8482 17.1193L17.1186 13.7587C17.9295 12.9197 19.1675 12.9771 19.9256 13.8961C20.1353 14.1506 20.1296 14.5403 19.9146 14.7886C19.6996 15.0369 19.3705 15.0301 19.1608 14.7755C18.7914 14.3386 18.1982 14.2973 17.8118 14.7053L14.5414 18.066C14.1302 18.4945 14.0859 19.231 14.4479 19.7178L14.7772 20.1618C15.1391 20.6486 15.7611 20.7011 16.1723 20.2725L18.8259 17.5547C19.0429 17.3222 19.3893 17.3584 19.5723 17.6177C19.7553 17.8769 19.7381 18.2847 19.5192 18.5014L19.5078 18.5196Z" fill="#4168F6"/>
<path d="M19.0474 11.8015L21.7011 9.08373C22.5482 8.206 23.8476 8.31733 24.5909 9.33613L24.9202 9.78013C25.6615 10.7831 25.5675 12.3217 24.707 13.2018L21.4366 16.5624C20.6257 17.4014 19.3877 17.344 18.6296 16.425C18.4198 16.1704 18.4256 15.7808 18.6406 15.5325C18.8556 15.2841 19.1847 15.291 19.3944 15.5455C19.7638 15.9825 20.357 16.0238 20.7434 15.6157L24.0138 12.2551C24.4249 11.8265 24.4692 11.0901 24.1073 10.6033L23.778 10.1593C23.416 9.67245 22.7941 9.62 22.3829 10.0486L19.7292 12.7663C19.5123 12.9988 19.1658 12.9626 18.9829 12.7034C18.7999 12.4441 18.8171 12.0363 19.036 11.8197L19.0474 11.8015Z" fill="#4168F6"/>
</svg>
