<svg width="160" height="34" viewBox="0 0 160 34" fill="none" xmlns="http://www.w3.org/2000/svg">
<path d="M20.5635 19.6654C20.5942 19.6664 20.6242 19.6751 20.6514 19.6907C20.6786 19.7063 20.7022 19.7284 20.7205 19.7555C20.7388 19.7825 20.7513 19.8138 20.7571 19.8469C20.7628 19.88 20.7617 19.9141 20.7538 19.9467C20.1738 22.4642 18.8297 24.6889 16.9435 26.2532C15.0574 27.8174 12.742 28.6276 10.3802 28.5498C4.17307 28.5498 0 24.0355 0 17.8482C0 9.51905 5.06542 3.0144 12.6045 3.0144C17.729 3.0144 21.9611 6.12971 22.1251 12.4613C22.1193 12.5337 22.0904 12.6015 22.0436 12.6529C21.9969 12.7043 21.9351 12.736 21.8692 12.7425H17.6371C17.5708 12.7375 17.5083 12.7062 17.4613 12.6545C17.4143 12.6028 17.3858 12.5342 17.3812 12.4613C17.3156 9.41809 15.5309 7.11045 12.1911 7.11045C7.19789 7.11045 4.97356 12.4613 4.97356 17.776C4.97356 21.8721 6.94199 24.461 10.3802 24.461C11.6335 24.5319 12.87 24.1197 13.8762 23.2955C14.8825 22.4714 15.5954 21.2869 15.8918 19.9467C15.9044 19.8658 15.9433 19.7928 16.0012 19.7411C16.0591 19.6894 16.1322 19.6625 16.2067 19.6654H20.5635Z" fill="#221E1F"/>
<path d="M19.8035 28.0305C19.7727 28.0292 19.7426 28.0205 19.7152 28.0049C19.6878 27.9894 19.6639 27.9674 19.6451 27.9406C19.6263 27.9138 19.6131 27.8827 19.6065 27.8496C19.5999 27.8166 19.5999 27.7823 19.6067 27.7493L21.4898 19.0019L23.268 10.2906C23.2865 10.2117 23.3279 10.1415 23.3859 10.0908C23.4439 10.04 23.5154 10.0115 23.5895 10.0093H27.7297C27.7604 10.0104 27.7904 10.019 27.8176 10.0346C27.8448 10.0502 27.8684 10.0723 27.8868 10.0994C27.9051 10.1264 27.9176 10.1577 27.9233 10.1908C27.9291 10.2239 27.9279 10.258 27.92 10.2906L27.2639 13.0525C28.0331 12.0676 28.9847 11.2745 30.0551 10.726C31.1255 10.1776 32.2901 9.88656 33.471 9.87231C33.7172 9.87681 33.9628 9.90091 34.2059 9.94443C34.2708 9.96622 34.3261 10.0136 34.3613 10.0775C34.3964 10.1414 34.4088 10.2172 34.3961 10.2906L33.6941 13.615C33.6797 13.6922 33.6392 13.7605 33.5807 13.806C33.5222 13.8516 33.4501 13.8709 33.3791 13.8602C33.1782 13.8422 32.9764 13.8422 32.7755 13.8602C31.1741 13.9235 29.6363 14.5645 28.3995 15.6841C27.1626 16.8036 26.2954 18.3396 25.9319 20.0547L24.3047 27.7853C24.292 27.8661 24.2531 27.9392 24.1952 27.9909C24.1373 28.0426 24.0643 28.0695 23.9897 28.0665L19.8035 28.0305Z" fill="#221E1F"/>
<path d="M37.8138 33.7273C37.7768 33.8025 37.7217 33.865 37.6546 33.9082C37.5876 33.9514 37.511 33.9737 37.4333 33.9725H33.0699C33.0436 33.9733 33.0176 33.9661 32.9948 33.9518C32.9719 33.9375 32.953 33.9166 32.9402 33.8913C32.9274 33.8661 32.9211 33.8375 32.922 33.8086C32.9228 33.7797 32.9309 33.7516 32.9453 33.7273L36.0619 27.7131L33.3258 10.2905C33.3238 10.2213 33.3457 10.1538 33.3871 10.1017C33.4285 10.0495 33.4863 10.0165 33.5489 10.0092H37.9451C38.0122 10.0199 38.0749 10.0524 38.1252 10.1025C38.1754 10.1526 38.211 10.2181 38.2272 10.2905L39.4411 21.5546L44.7886 10.2544C44.8268 10.1803 44.8821 10.1186 44.9489 10.0755C45.0157 10.0325 45.0917 10.0096 45.1692 10.0092H49.9722C49.999 10.0071 50.0259 10.0132 50.0497 10.027C50.0736 10.0407 50.0934 10.0615 50.1071 10.087C50.1207 10.1125 50.1276 10.1417 50.127 10.1713C50.1263 10.2009 50.1182 10.2296 50.1034 10.2544L37.8138 33.7273Z" fill="#221E1F"/>
<path d="M57.006 28.3766C54.6832 28.3766 52.8723 27.331 51.8815 25.3695L50.1952 33.6914C50.1791 33.7703 50.1392 33.8409 50.0821 33.8919C50.0249 33.9429 49.9539 33.9714 49.8803 33.9726H45.5497C45.5191 33.9716 45.489 33.9629 45.4618 33.9474C45.4347 33.9318 45.411 33.9096 45.3927 33.8826C45.3744 33.8555 45.3619 33.8243 45.3562 33.7911C45.3504 33.758 45.3515 33.7239 45.3595 33.6914L48.1284 20.7109L50.2608 10.2833C50.2781 10.205 50.3182 10.135 50.3751 10.0842C50.432 10.0334 50.5025 10.0045 50.5758 10.0021H54.8145C54.8451 10.0031 54.8752 10.0117 54.9024 10.0273C54.9296 10.0429 54.9532 10.0651 54.9715 10.0921C54.9898 10.1192 55.0023 10.1504 55.0081 10.1835C55.0138 10.2166 55.0127 10.2507 55.0048 10.2833L54.6833 11.5813C55.8968 10.3265 57.5051 9.63651 59.1713 9.65592C63.5674 9.65592 66.2379 14.026 64.8732 20.3936C64.0136 24.5329 61.5924 28.3766 57.006 28.3766ZM55.9562 24.8791C57.9968 24.8791 59.3616 23.1988 60.0636 19.8311C60.9888 15.5043 59.7487 13.1823 57.3275 13.1823C55.2869 13.1823 53.8893 14.8625 53.1872 18.1509C52.2686 22.5715 53.5678 24.8791 55.943 24.8791H55.9562Z" fill="#221E1F"/>
<path d="M73.4944 27.4176C73.4786 27.5036 73.4404 27.5828 73.3845 27.6455C73.3287 27.7082 73.2574 27.7518 73.1795 27.771C72.1726 28.1496 71.1199 28.3611 70.0562 28.3983C67.2873 28.3983 64.9646 26.8623 65.8241 22.7663L67.7532 13.716H65.8438C65.8131 13.715 65.7831 13.7064 65.7559 13.6908C65.7287 13.6752 65.7051 13.653 65.6868 13.626C65.6685 13.5989 65.656 13.5677 65.6502 13.5346C65.6445 13.5015 65.6456 13.4674 65.6535 13.4348L66.3097 10.2834C66.3223 10.2026 66.3612 10.1296 66.4191 10.0779C66.477 10.0261 66.55 9.99926 66.6246 10.0022H68.4749L69.3279 5.78355C69.3454 5.70597 69.3858 5.63697 69.4428 5.58737C69.4998 5.53777 69.5702 5.51038 69.6429 5.50952H74.039C74.069 5.51079 74.0983 5.51931 74.1249 5.53448C74.1515 5.54966 74.1747 5.5711 74.1929 5.59728C74.2111 5.62346 74.2238 5.65374 74.2301 5.68594C74.2364 5.71814 74.2361 5.75147 74.2293 5.78355L73.2713 10.0166H76.9392C76.9698 10.0176 76.9999 10.0263 77.0271 10.0419C77.0543 10.0575 77.0779 10.0796 77.0962 10.1067C77.1145 10.1337 77.127 10.165 77.1328 10.1981C77.1385 10.2312 77.1374 10.2653 77.1295 10.2979L76.4733 13.4492C76.4607 13.53 76.4218 13.6031 76.3639 13.6548C76.306 13.7065 76.2329 13.7334 76.1584 13.7305H72.4774L70.6336 22.6148C70.3121 24.1509 70.883 24.6412 71.9459 24.6412C72.6131 24.6482 73.2771 24.5412 73.9144 24.3239C73.9409 24.3144 73.9692 24.3132 73.9963 24.3203C74.0234 24.3274 74.0482 24.3427 74.0679 24.3643C74.0876 24.386 74.1015 24.4132 74.1079 24.443C74.1144 24.4728 74.1133 24.5039 74.1046 24.5331L73.4944 27.4176Z" fill="#221E1F"/>
<path d="M84.6681 9.55493C89.0315 9.55493 92.1481 12.4395 92.1481 17.1124C92.1481 23.6531 88.2113 28.4847 82.6013 28.4847C78.2379 28.4847 75.0557 25.6002 75.0557 20.8912C75.0557 14.1413 79.0647 9.55493 84.6681 9.55493ZM82.7588 24.98C85.4292 24.98 87.2796 22.182 87.2796 16.9033C87.2796 14.3144 86.1641 13.0524 84.4122 13.0524C81.7089 13.0524 79.8586 15.9947 79.8586 21.2373C79.8586 23.8118 80.9741 24.98 82.7588 24.98Z" fill="#221E1F"/>
<path d="M100.679 28.0303C100.649 28.0293 100.619 28.0207 100.591 28.0051C100.564 27.9895 100.541 27.9673 100.522 27.9403C100.504 27.9132 100.491 27.882 100.486 27.8489C100.48 27.8158 100.481 27.7816 100.489 27.7491L103.186 15.7854L104.846 7.49237H98.5927C98.562 7.49134 98.532 7.4827 98.5048 7.46711C98.4776 7.45151 98.454 7.42936 98.4357 7.40231C98.4174 7.37526 98.4049 7.34401 98.3991 7.31091C98.3934 7.2778 98.3945 7.24369 98.4024 7.21112L99.0979 3.82178C99.112 3.74037 99.1522 3.6672 99.2112 3.6156C99.2702 3.56399 99.3441 3.53735 99.4194 3.54054H116.735C116.766 3.54157 116.796 3.5502 116.823 3.5658C116.85 3.58139 116.874 3.60354 116.892 3.63059C116.91 3.65764 116.923 3.68889 116.929 3.722C116.934 3.75511 116.933 3.78922 116.925 3.82178L116.243 7.22555C116.23 7.30637 116.191 7.37941 116.133 7.43112C116.076 7.48284 116.003 7.50972 115.928 7.50679H109.747L107.897 15.7999L105.541 27.7635C105.524 27.8418 105.484 27.9118 105.427 27.9626C105.37 28.0134 105.3 28.0423 105.226 28.0447L100.679 28.0303Z" fill="#221E1F"/>
<path d="M120.061 28.0307C120.03 28.0296 120 28.021 119.973 28.0054C119.946 27.9898 119.922 27.9676 119.904 27.9406C119.886 27.9136 119.873 27.8823 119.867 27.8492C119.862 27.8161 119.863 27.782 119.871 27.7494L120.192 26.4874C118.976 27.7099 117.385 28.3844 115.737 28.3768C111.341 28.3768 108.67 24.0067 110.035 17.6391C110.895 13.543 113.316 9.66333 117.909 9.66333C120.258 9.66333 122.141 10.745 123.092 12.8075L123.538 10.2907C123.545 10.2123 123.579 10.1396 123.632 10.0874C123.686 10.0352 123.756 10.0073 123.827 10.0095H128.118C128.149 10.0105 128.179 10.0191 128.206 10.0347C128.233 10.0503 128.257 10.0725 128.275 10.0995C128.294 10.1266 128.306 10.1578 128.312 10.1909C128.318 10.224 128.317 10.2582 128.309 10.2907L126.432 19.0381L124.647 27.7494C124.629 27.8283 124.587 27.8984 124.529 27.9492C124.471 27.9999 124.4 28.0285 124.326 28.0307H120.061ZM117.581 24.8793C119.615 24.9153 120.986 23.199 121.721 19.9107C122.58 15.6415 121.432 13.2979 119.201 13.1608H118.696C116.787 13.2618 115.481 14.9781 114.845 18.2088C113.887 22.5717 115.159 24.9153 117.581 24.8793Z" fill="#221E1F"/>
<path d="M136.327 28.0305C136.254 28.0283 136.183 28.0043 136.122 27.9611C136.061 27.9179 136.011 27.8571 135.979 27.7853L134.07 22.3264L130.284 27.8142C130.174 27.9385 130.027 28.0153 129.87 28.0305H125.061C125.038 28.0299 125.016 28.0225 124.997 28.0092C124.978 27.9958 124.963 27.9771 124.953 27.9548C124.943 27.9326 124.938 27.9078 124.94 27.883C124.942 27.8582 124.949 27.8344 124.963 27.8142L132.252 18.0428L128.912 10.2762C128.904 10.2485 128.902 10.2191 128.906 10.1903C128.91 10.1615 128.92 10.1341 128.935 10.1103C128.951 10.0865 128.971 10.067 128.994 10.0532C129.018 10.0394 129.043 10.0318 129.07 10.031H133.525C133.599 10.0319 133.671 10.0553 133.734 10.0986C133.796 10.1419 133.847 10.2034 133.88 10.2762L135.848 15.389L139.227 10.2401C139.338 10.1185 139.484 10.0443 139.64 10.031H144.319C144.411 10.031 144.476 10.1752 144.411 10.2401L137.665 19.3409L140.946 27.807C140.954 27.8347 140.957 27.8641 140.953 27.8929C140.949 27.9217 140.939 27.9491 140.923 27.9729C140.908 27.9967 140.888 28.0162 140.865 28.03C140.841 28.0437 140.815 28.0513 140.789 28.0522L136.327 28.0305Z" fill="#221E1F"/>
<path d="M141.693 7.64403H149.902L144.436 21.8648L160 0L141.693 7.64403Z" fill="#0047BA"/>
</svg>
