<svg width="40" height="41" viewBox="0 0 40 41" fill="none" xmlns="http://www.w3.org/2000/svg">
<circle cx="20" cy="20.5" r="20" fill="#D2D6DB"/>
<path d="M27.2004 15.7H12.2004V15.1L25.4004 14.044V15.1H27.2004V13.3C27.2004 11.98 26.1312 11.0536 24.8256 11.2396L12.7764 12.9604C11.4696 13.1476 10.4004 14.38 10.4004 15.7V27.7C10.4004 28.3365 10.6532 28.947 11.1033 29.397C11.5534 29.8471 12.1639 30.1 12.8004 30.1H27.2004C27.8369 30.1 28.4474 29.8471 28.8974 29.397C29.3475 28.947 29.6004 28.3365 29.6004 27.7V18.1C29.6004 17.4635 29.3475 16.853 28.8974 16.4029C28.4474 15.9528 27.8369 15.7 27.2004 15.7ZM25.4004 24.1072C25.1639 24.1071 24.9298 24.0605 24.7114 23.9699C24.4929 23.8793 24.2945 23.7466 24.1273 23.5794C23.9602 23.4121 23.8276 23.2136 23.7372 22.9951C23.6468 22.7766 23.6003 22.5424 23.6004 22.306C23.6005 22.0695 23.6471 21.8354 23.7377 21.617C23.8282 21.3985 23.9609 21.2001 24.1282 21.0329C24.2955 20.8658 24.494 20.7332 24.7125 20.6428C24.931 20.5524 25.1651 20.5059 25.4016 20.506C25.8791 20.5061 26.3371 20.696 26.6746 21.0338C27.0122 21.3716 27.2017 21.8296 27.2016 22.3072C27.2014 22.7847 27.0116 23.2427 26.6738 23.5802C26.336 23.9178 25.8779 24.1073 25.4004 24.1072Z" fill="#4168F6"/>
</svg>
