<svg width="29" height="42" viewBox="0 0 29 42" fill="none" xmlns="http://www.w3.org/2000/svg">
<path d="M22.8477 41.0007L1.28027 36.7891L1.28028 15.9404L22.8096 20.2778L22.8477 41.0007Z" fill="white"/>
<path d="M5.08615 12.8349L1.24219 15.2777L23.3389 19.7058L23.4107 41.001L27.0196 38.7068C27.4896 38.4096 27.7582 37.8628 27.7582 37.2209L27.719 18.8378C27.719 17.7086 26.8741 16.6269 25.8278 16.4248L6.21639 12.6388C5.80234 12.5615 5.39948 12.6269 5.07495 12.8349H5.08615Z" fill="#CCCCCC"/>
<path d="M27.1482 17.2979L23.3389 19.7062L23.3509 40.7485L27.2267 38.3879L27.7582 37.3203L27.5468 19.2591V17.8579L27.1482 17.2979Z" fill="#6D6D6D"/>
<path d="M27.7246 18.8378C27.7277 18.8378 27.7302 18.8353 27.7302 18.8322C27.7274 17.705 26.8836 16.6265 25.839 16.4248L6.22758 12.6388C5.81353 12.5615 5.41067 12.6269 5.08614 12.8349L2.40132 14.5411C1.67944 14.9998 1.24219 15.7958 1.24219 16.6511V34.1216C1.24219 35.047 1.87702 35.8516 2.77704 36.0668L22.1754 40.7056C22.965 40.8944 23.7974 40.7551 24.4825 40.3196L27.0196 38.7068C27.4896 38.4096 27.7582 37.8628 27.7582 37.2209L27.719 18.8434C27.719 18.8403 27.7215 18.8378 27.7246 18.8378V18.8378Z" stroke="black" stroke-linecap="round" stroke-linejoin="round"/>
<path d="M15.6237 21.6137L12.1558 20.9569L8.68788 20.3C7.89971 20.1488 7.25793 20.7708 7.2523 21.6777L7.21289 26.2467C7.21289 26.3746 7.21853 26.5025 7.23541 26.642C7.34801 29.8915 11.1256 33.8212 11.559 34.263C11.7054 34.4083 11.8743 34.5013 12.0432 34.5362C12.2121 34.571 12.3866 34.5362 12.533 34.449C12.9721 34.1758 16.8003 31.6761 16.9748 28.4848C16.9917 28.3569 17.003 28.229 17.003 28.1011L17.0424 23.532C17.048 22.6194 16.4175 21.7649 15.635 21.6137H15.6237Z" fill="#4168F6"/>
<path d="M15.0499 22.4447L12.1505 21.8983L9.25123 21.3518C8.59256 21.2297 8.05773 21.7471 8.04647 22.5086L8.0127 26.3278C8.0127 26.4324 8.01269 26.5429 8.02958 26.6591C8.12529 29.3738 11.2836 32.664 11.6439 33.0303C11.7621 33.1523 11.9085 33.2279 12.0492 33.257C12.19 33.286 12.3363 33.257 12.4546 33.1814C12.8205 32.9489 16.0238 30.862 16.1702 28.1938C16.1871 28.0833 16.1927 27.9787 16.1927 27.8741L16.2265 24.0549C16.2321 23.2934 15.7029 22.5726 15.0499 22.4505V22.4447Z" fill="white"/>
<path d="M8.54713 25.7402V26.4029C8.5415 26.4959 8.54713 26.5889 8.55839 26.6877C8.64284 29.0478 11.3845 31.9078 11.6998 32.2276C11.8067 32.3322 11.9306 32.402 12.0545 32.4252L12.1051 26.4087L8.54713 25.7344V25.7402Z" fill="white"/>
<path d="M12.1391 22.5499L9.61702 22.0732C9.04278 21.9628 8.57552 22.4162 8.56989 23.0789L8.54736 25.7413L12.1054 26.4156L12.1391 22.5557V22.5499Z" fill="#4168F6"/>
<path d="M15.663 27.084L15.6855 24.4216C15.6911 23.7589 15.2351 23.1369 14.6609 23.0265L12.1388 22.5498L12.105 26.4097L15.663 27.084Z" fill="white"/>
<path d="M12.1049 26.4102L12.0542 32.4267C12.1781 32.4499 12.3019 32.4267 12.4089 32.3627C12.7298 32.1651 15.5165 30.3456 15.6403 28.0262C15.6516 27.9332 15.6629 27.8402 15.6629 27.7472V27.0845L12.1105 26.4102H12.1049Z" fill="#4168F6"/>
<path fill-rule="evenodd" clip-rule="evenodd" d="M11.5187 3.42955C10.464 3.27239 9.51276 4.06275 9.51276 5.09628V13.8161C9.51276 14.4813 8.95594 15.0206 8.26907 15.0206C7.58221 15.0206 7.02539 14.4813 7.02539 13.8161V5.09628C7.02539 2.58627 9.33543 0.666836 11.8969 1.0485L18.0179 1.96054C20.566 2.34023 22.4471 4.46375 22.4471 6.96074V16.181C22.4471 16.8462 21.8903 17.3855 21.2034 17.3855C20.5165 17.3855 19.9597 16.8462 19.9597 16.181V6.96074C19.9597 5.65279 18.9744 4.54047 17.6396 4.34159L11.5187 3.42955Z" fill="white" stroke="black" stroke-linecap="round" stroke-linejoin="round"/>
</svg>
