<svg width="25" height="24" viewBox="0 0 25 24" fill="none" xmlns="http://www.w3.org/2000/svg">
<path fill-rule="evenodd" clip-rule="evenodd" d="M6.25 2C4.86929 2 3.75 3.11929 3.75 4.5V22L8.125 19.5L12.5 22L16.875 19.5L21.25 22V4.5C21.25 3.11929 20.1308 2 18.75 2H6.25ZM9.375 5.75C8.33946 5.75 7.5 6.58946 7.5 7.625C7.5 8.66054 8.33946 9.5 9.375 9.5C10.4105 9.5 11.25 8.66054 11.25 7.625C11.25 6.58946 10.4105 5.75 9.375 5.75ZM17.1339 6.11611C16.6458 5.62796 15.8542 5.62796 15.3661 6.11611L7.86611 13.6161C7.37796 14.1042 7.37796 14.8958 7.86611 15.3839C8.35428 15.872 9.14572 15.872 9.63389 15.3839L17.1339 7.88389C17.622 7.39572 17.622 6.60428 17.1339 6.11611ZM15.625 12C14.5895 12 13.75 12.8395 13.75 13.875C13.75 14.9105 14.5895 15.75 15.625 15.75C16.6605 15.75 17.5 14.9105 17.5 13.875C17.5 12.8395 16.6605 12 15.625 12Z" fill="#353C49"/>
</svg>
