<svg width="25" height="24" viewBox="0 0 25 24" fill="none" xmlns="http://www.w3.org/2000/svg">
<path d="M5.46699 8.4H5.72413C6.71413 8.4 7.52414 9.21 7.52414 10.2V19.2C7.52414 20.19 6.71413 21 5.72413 21H5.46699C4.47699 21 3.66699 20.19 3.66699 19.2V10.2C3.66699 9.21 4.47699 8.4 5.46699 8.4ZM12.667 3C13.657 3 14.467 3.81 14.467 4.8V19.2C14.467 20.19 13.657 21 12.667 21C11.677 21 10.867 20.19 10.867 19.2V4.8C10.867 3.81 11.677 3 12.667 3ZM19.867 13.2857C20.857 13.2857 21.667 14.0957 21.667 15.0857V19.2C21.667 20.19 20.857 21 19.867 21C18.877 21 18.067 20.19 18.067 19.2V15.0857C18.067 14.0957 18.877 13.2857 19.867 13.2857Z" fill="#D2D6DB"/>
</svg>
