<svg width="200" height="89" viewBox="0 0 200 89" fill="none" xmlns="http://www.w3.org/2000/svg">
<g clip-path="url(#clip0_3346_30628)">
<path d="M45.8879 17.9938L31.2266 58.6283L85.4881 78.2064L100.149 37.572L45.8879 17.9938Z" fill="#4168F6"/>
<path d="M148.326 0.958193L169.965 0L159.973 19.2209L148.326 0.958193Z" fill="#1A1E27"/>
<path d="M114.755 16.5745C119.592 16.5745 123.516 20.4985 123.516 25.3351H125.797C125.797 19.2323 120.846 14.293 114.755 14.293V16.5745ZM105.994 25.3351C105.994 20.4985 109.918 16.5745 114.755 16.5745V14.293C108.652 14.293 103.713 19.2437 103.713 25.3351H105.994ZM114.755 34.0957C109.918 34.0957 105.994 30.1717 105.994 25.3351H103.713C103.713 31.4379 108.664 36.3771 114.755 36.3771V34.0957ZM123.516 25.3351C123.516 30.1717 119.592 34.0957 114.755 34.0957V36.3771C120.858 36.3771 125.797 31.4265 125.797 25.3351H123.516Z" fill="#1A1E27"/>
<path d="M89.1923 11.4641C90.8577 11.4641 92.2037 12.8101 92.2037 14.4756H94.4852C94.4852 11.5554 92.1125 9.18269 89.1923 9.18269V11.4641ZM86.1808 14.4756C86.1808 12.8101 87.5269 11.4641 89.1923 11.4641V9.18269C86.2721 9.18269 83.8994 11.5554 83.8994 14.4756H86.1808ZM89.1923 17.487C87.5269 17.487 86.1808 16.141 86.1808 14.4756H83.8994C83.8994 17.3958 86.2721 19.7684 89.1923 19.7684V17.487ZM92.2037 14.4756C92.2037 16.141 90.8577 17.487 89.1923 17.487V19.7684C92.1125 19.7684 94.4852 17.3958 94.4852 14.4756H92.2037Z" fill="#1A1E27"/>
<path d="M120.641 18.103C142.04 12.9812 161.022 10.0154 174.973 9.44504C181.954 9.15987 187.634 9.47926 191.73 10.4146C193.771 10.8823 195.391 11.4983 196.566 12.2512C197.741 12.9926 198.437 13.8596 198.722 14.8064L199.817 14.487C199.429 13.198 198.517 12.1371 197.182 11.293C195.859 10.4489 194.102 9.79866 191.992 9.30816C187.76 8.33856 181.954 8.01916 174.938 8.30434C160.885 8.87469 141.824 11.8519 120.39 16.9851L120.652 18.0916L120.641 18.103ZM1.28872 73.393C0.889474 72.0356 1.28872 70.3816 2.65757 68.4196C4.0036 66.4575 6.23939 64.2788 9.28507 61.9403C15.365 57.2634 24.5591 52.039 36.0803 46.6891L35.6012 45.6511C24.0572 51.0124 14.7719 56.2824 8.58924 61.0392C5.50933 63.4119 3.17089 65.6705 1.72219 67.7694C0.2849 69.8568 -0.342489 71.8873 0.20505 73.7238L1.30013 73.4044L1.28872 73.393ZM105.629 63.0468C78.2407 71.1687 52.8144 76.3475 33.8559 78.1384C24.3652 79.0395 16.5286 79.0852 10.8821 78.2524C8.05311 77.8418 5.80592 77.203 4.18611 76.3703C2.56631 75.5376 1.63093 74.5223 1.28872 73.3816L0.193643 73.701C0.649926 75.2524 1.88189 76.4615 3.66139 77.3741C5.44089 78.2867 7.82497 78.9483 10.711 79.3703C16.4943 80.2259 24.4336 80.1574 33.9585 79.2563C53.0197 77.4539 78.5145 72.2637 105.948 64.1191L105.629 63.024V63.0468ZM198.711 14.8064C199.053 15.9471 198.813 17.3045 197.912 18.8901C197.011 20.4757 195.471 22.2324 193.338 24.1259C189.06 27.9017 182.456 32.1337 174.014 36.5596C157.143 45.4001 133.006 54.925 105.618 63.0582L105.937 64.1533C133.371 56.0087 157.577 46.4496 174.528 37.5749C183.003 33.1375 189.688 28.8599 194.079 24.9929C196.27 23.0651 197.901 21.2057 198.893 19.4719C199.886 17.738 200.251 16.0497 199.794 14.4984L198.699 14.8178L198.711 14.8064Z" fill="#1A1E27"/>
<path d="M45.8918 17.9961L31.2305 58.6306L39.4711 61.6039L54.1325 20.9694L45.8918 17.9961Z" fill="#4168F6"/>
<path d="M108.607 37.4152L150.642 62.8415L107.592 86.5226L108.607 37.4152Z" fill="white"/>
<path d="M108.732 86.5454L109.748 37.4266L107.466 37.3809L106.451 86.4997L108.732 86.5454ZM150.083 61.8491L107.044 85.5301L108.139 87.5264L151.178 63.8453L150.083 61.8491ZM108.014 38.3848L150.037 63.8225L151.224 61.8719L109.2 36.4342L108.014 38.3848ZM107.592 86.5226L106.451 86.4997L106.405 88.4732L108.139 87.5264L107.592 86.5226ZM150.63 62.8415L151.178 63.8453L152.912 62.8985L151.224 61.8719L150.63 62.8529V62.8415ZM108.607 37.4038L109.2 36.4227L107.512 35.3961L107.466 37.3695L108.607 37.3923V37.4038Z" fill="#1A1E27"/>
</g>
<defs>
<clipPath id="clip0_3346_30628">
<rect width="200" height="88.4732" fill="white"/>
</clipPath>
</defs>
</svg>
